G04 #@! TF.GenerationSoftware,KiCad,Pcbnew,no-vcs-found-7592~57~ubuntu16.04.1*
G04 #@! TF.CreationDate,2017-02-07T06:20:48+01:00*
G04 #@! TF.ProjectId,DuePi,44756550692E6B696361645F70636200,rev?*
G04 #@! TF.FileFunction,Copper,L2,Bot,Signal*
G04 #@! TF.FilePolarity,Positive*
%FSLAX46Y46*%
G04 Gerber Fmt 4.6, Leading zero omitted, Abs format (unit mm)*
G04 Created by KiCad (PCBNEW no-vcs-found-7592~57~ubuntu16.04.1) date Tue Feb  7 06:20:48 2017*
%MOMM*%
%LPD*%
G01*
G04 APERTURE LIST*
%ADD10C,0.100000*%
%ADD11C,1.750000*%
%ADD12R,1.750000X1.750000*%
%ADD13C,1.500000*%
%ADD14O,1.727200X1.727200*%
%ADD15R,1.727200X1.727200*%
%ADD16R,1.500000X1.500000*%
%ADD17O,0.950000X1.250000*%
%ADD18O,1.550000X1.000000*%
%ADD19C,0.800000*%
%ADD20C,0.600000*%
%ADD21C,0.630000*%
%ADD22C,0.450000*%
%ADD23C,0.250000*%
%ADD24C,0.650000*%
%ADD25C,0.400000*%
%ADD26C,0.350000*%
%ADD27C,0.850000*%
%ADD28C,0.254000*%
G04 APERTURE END LIST*
D10*
D11*
X151040000Y-72820000D03*
X151040000Y-70280000D03*
X153580000Y-72820000D03*
X153580000Y-70280000D03*
X145960000Y-70280000D03*
X145960000Y-72820000D03*
D12*
X118020000Y-72820000D03*
D11*
X118020000Y-70280000D03*
X120560000Y-72820000D03*
X120560000Y-70280000D03*
X123100000Y-72820000D03*
X123100000Y-70280000D03*
X125640000Y-72820000D03*
X125640000Y-70280000D03*
X128180000Y-72820000D03*
X128180000Y-70280000D03*
X130720000Y-72820000D03*
X130720000Y-70280000D03*
X133260000Y-72820000D03*
X133260000Y-70280000D03*
X135800000Y-72820000D03*
X135800000Y-70280000D03*
X138340000Y-72820000D03*
X138340000Y-70280000D03*
X140880000Y-72820000D03*
X140880000Y-70280000D03*
X143420000Y-72820000D03*
X143420000Y-70280000D03*
X148500000Y-72820000D03*
X148500000Y-70280000D03*
X156120000Y-72820000D03*
X156120000Y-70280000D03*
X158660000Y-72820000D03*
X158660000Y-70280000D03*
X161200000Y-72820000D03*
X161200000Y-70280000D03*
X163740000Y-72820000D03*
X163740000Y-70280000D03*
X166280000Y-72820000D03*
X166280000Y-70280000D03*
D13*
X127700000Y-97900000D03*
X129800000Y-97950000D03*
X131900000Y-97950000D03*
X134000000Y-97950000D03*
X129800000Y-100300000D03*
X127700000Y-100300000D03*
D14*
X172212000Y-92110000D03*
X172212000Y-94650000D03*
X169672000Y-92110000D03*
X169672000Y-94650000D03*
X167132000Y-92110000D03*
D15*
X167132000Y-94650000D03*
D13*
X131900000Y-100330000D03*
D16*
X184880000Y-78460000D03*
X182640000Y-78460000D03*
X187390000Y-78450000D03*
D17*
X188937460Y-88606900D03*
X188937460Y-83606900D03*
D18*
X191637460Y-89606900D03*
X191637460Y-82606900D03*
X191637460Y-102418900D03*
X191637460Y-109418900D03*
D17*
X188937460Y-103418900D03*
X188937460Y-108418900D03*
D19*
X165862000Y-78486000D03*
X161290000Y-78486000D03*
X125900000Y-82100000D03*
X154200000Y-102800000D03*
X131450000Y-82100000D03*
X138375000Y-82100000D03*
X157500000Y-102800000D03*
X136880000Y-115030000D03*
D20*
X127140000Y-79780000D03*
X127130000Y-77300000D03*
X114532580Y-92992580D03*
D19*
X122660000Y-93450000D03*
D20*
X175730000Y-93040000D03*
X169430000Y-82410000D03*
D19*
X148325000Y-82075000D03*
D20*
X122050000Y-104975000D03*
D19*
X114140000Y-104120000D03*
X116910000Y-104120000D03*
X115530000Y-104120000D03*
X115520000Y-99930000D03*
X115519996Y-101190000D03*
X115519998Y-98680000D03*
X115520000Y-97540008D03*
X157700000Y-86650000D03*
X152800000Y-103600000D03*
X162975000Y-103350000D03*
X139900000Y-91050000D03*
X149850000Y-103625000D03*
X147325000Y-103625000D03*
D20*
X165890000Y-98330000D03*
X145630000Y-97290000D03*
X178520000Y-94650000D03*
D19*
X170410000Y-78200000D03*
X179020000Y-81440000D03*
X186436000Y-87630000D03*
X186436000Y-82042000D03*
X181220000Y-92160000D03*
X132650000Y-117350000D03*
X153000000Y-117350000D03*
X181200000Y-108200000D03*
D20*
X134225000Y-74975000D03*
X134225000Y-76100000D03*
D21*
X151030000Y-90620000D03*
D20*
X166225000Y-105600000D03*
X139525000Y-106525000D03*
X165675000Y-106575000D03*
X141200000Y-106650000D03*
X138950000Y-108600000D03*
X141900000Y-102375000D03*
X140325000Y-108600000D03*
X143125000Y-102400000D03*
X154700000Y-91200000D03*
X155525000Y-92750000D03*
X156925000Y-95475000D03*
X135725000Y-95450000D03*
X157850000Y-94675000D03*
X134925000Y-94700000D03*
X159900000Y-85225000D03*
X158150000Y-82150000D03*
X146000000Y-76625000D03*
X147225000Y-77400000D03*
X177460000Y-100740000D03*
X147350000Y-81150000D03*
X147650000Y-91500000D03*
X152000000Y-99025000D03*
X176640000Y-97490000D03*
X125030000Y-94860000D03*
X146500000Y-82100000D03*
X147600000Y-98075000D03*
X146850000Y-93750000D03*
X173050000Y-90675000D03*
X167300000Y-107230000D03*
X140600000Y-103875000D03*
X169590000Y-80880000D03*
X163720000Y-96440000D03*
X139330000Y-96470000D03*
X159890000Y-84300000D03*
X173500000Y-82010000D03*
X139450000Y-87450000D03*
X142240000Y-87450000D03*
D19*
X167420000Y-87150000D03*
X167480000Y-80060000D03*
D20*
X175830000Y-82940000D03*
X178620000Y-88950000D03*
D19*
X166450000Y-83150000D03*
D20*
X178640000Y-83900000D03*
D19*
X113230000Y-91050000D03*
X155050000Y-79450000D03*
X141550000Y-78500000D03*
D20*
X157850000Y-90200000D03*
X157825000Y-91400000D03*
X157800000Y-92550000D03*
D19*
X134310000Y-101180000D03*
X149825000Y-87500000D03*
X149825000Y-90625000D03*
X151700000Y-102400000D03*
X149800000Y-93375000D03*
X149825000Y-85125000D03*
X149850000Y-101250000D03*
X144650000Y-102400000D03*
X139954000Y-112014000D03*
X141225000Y-107700000D03*
D20*
X140210000Y-98230000D03*
X141150000Y-97400000D03*
X162814000Y-76200000D03*
X149750000Y-78150000D03*
X125210000Y-85270000D03*
X142200000Y-85290000D03*
X181850000Y-86600000D03*
X181860000Y-85180000D03*
X112522000Y-94234000D03*
X144480000Y-87660000D03*
X111470000Y-91190000D03*
X120600000Y-99925000D03*
X123400000Y-104975000D03*
X120610000Y-95260000D03*
X144698346Y-82024989D03*
X141425000Y-74600000D03*
X143670000Y-82050000D03*
X117620000Y-88550000D03*
X116940000Y-93630000D03*
X119725000Y-99125000D03*
X119770000Y-106430000D03*
X161798000Y-76200000D03*
D22*
X161290000Y-78486000D02*
X165862000Y-78486000D01*
X131450000Y-82100000D02*
X125900000Y-82100000D01*
X157500000Y-102800000D02*
X154200000Y-102800000D01*
X138375000Y-82100000D02*
X131450000Y-82100000D01*
D23*
X112300000Y-90675000D02*
X112200000Y-90575000D01*
X112300000Y-91575000D02*
X112300000Y-90675000D01*
X113417581Y-92692581D02*
X112300000Y-91575000D01*
X114532580Y-92992580D02*
X114232581Y-92692581D01*
X114232581Y-92692581D02*
X113417581Y-92692581D01*
X148325000Y-82075000D02*
X148325000Y-81525000D01*
X148150000Y-80050000D02*
X146100000Y-80050000D01*
X148325000Y-81525000D02*
X148500000Y-81350000D01*
X145650000Y-80500000D02*
X145650000Y-83050000D01*
X148500000Y-81350000D02*
X148500000Y-80400000D01*
X148500000Y-80400000D02*
X148150000Y-80050000D01*
X146100000Y-80050000D02*
X145650000Y-80500000D01*
X137075000Y-71425000D02*
X137075000Y-69025000D01*
X138340000Y-72690000D02*
X137075000Y-71425000D01*
X138340000Y-72820000D02*
X138340000Y-72690000D01*
X139600000Y-71550000D02*
X139600000Y-69150000D01*
X138340000Y-72810000D02*
X139600000Y-71550000D01*
X138340000Y-72820000D02*
X138340000Y-72810000D01*
X157700000Y-86810000D02*
X157700000Y-86650000D01*
X152800000Y-103600000D02*
X152775000Y-103600000D01*
X147400000Y-103850000D02*
X147325000Y-103775000D01*
X147325000Y-103775000D02*
X147325000Y-103625000D01*
X165890000Y-98330000D02*
X165040000Y-98330000D01*
X165040000Y-98330000D02*
X164010000Y-97300000D01*
X164010000Y-97300000D02*
X145640000Y-97300000D01*
X145640000Y-97300000D02*
X145630000Y-97290000D01*
X130150000Y-99050000D02*
X129800000Y-99400000D01*
X145630000Y-97290000D02*
X143010000Y-97290000D01*
X143010000Y-97290000D02*
X141250000Y-99050000D01*
X141250000Y-99050000D02*
X130150000Y-99050000D01*
X129800000Y-99400000D02*
X129800000Y-100300000D01*
X178520000Y-94650000D02*
X172212000Y-94650000D01*
D24*
X170410000Y-78200000D02*
X170440000Y-78230000D01*
X179020000Y-78970000D02*
X179020000Y-81440000D01*
X170440000Y-78230000D02*
X178280000Y-78230000D01*
X178280000Y-78230000D02*
X179020000Y-78970000D01*
D25*
X186436000Y-87630000D02*
X186436000Y-82042000D01*
D26*
X181120000Y-108200000D02*
X181200000Y-108200000D01*
D22*
X181220000Y-92160000D02*
X181220000Y-108100000D01*
D26*
X181220000Y-108100000D02*
X181120000Y-108200000D01*
D27*
X153000000Y-117350000D02*
X132650000Y-117350000D01*
D23*
X134225000Y-74975000D02*
X129900000Y-74975000D01*
X129900000Y-74975000D02*
X129425000Y-74500000D01*
X129425000Y-74500000D02*
X129425000Y-71350000D01*
X129425000Y-71350000D02*
X128370461Y-70295461D01*
X128370461Y-70295461D02*
X128170096Y-70295461D01*
X134225000Y-76100000D02*
X134150000Y-76025000D01*
X126875000Y-71575000D02*
X125630096Y-70330096D01*
X134150000Y-76025000D02*
X127275000Y-76025000D01*
X127275000Y-76025000D02*
X126875000Y-75625000D01*
X126875000Y-75625000D02*
X126875000Y-71575000D01*
X125630096Y-70330096D02*
X125630096Y-70295461D01*
X151040000Y-72820000D02*
X151040000Y-90610000D01*
X151040000Y-90610000D02*
X151030000Y-90620000D01*
X151030000Y-90620000D02*
X151030096Y-90619904D01*
X139525000Y-105775000D02*
X139525000Y-106525000D01*
X166225000Y-105600000D02*
X139700000Y-105600000D01*
X139700000Y-105600000D02*
X139525000Y-105775000D01*
X139525000Y-106525000D02*
X139550000Y-106500000D01*
X143370599Y-106715450D02*
X143313718Y-106679709D01*
X143313718Y-106679709D02*
X143250309Y-106657521D01*
X143418102Y-106762953D02*
X143370599Y-106715450D01*
X143453843Y-106819834D02*
X143418102Y-106762953D01*
X143476031Y-106883243D02*
X143453843Y-106819834D01*
X143483553Y-107350000D02*
X143483553Y-106950000D01*
X143491074Y-107416756D02*
X143483553Y-107350000D01*
X143513262Y-107480165D02*
X143491074Y-107416756D01*
X143549003Y-107537046D02*
X143513262Y-107480165D01*
X143653387Y-107620290D02*
X143596506Y-107584549D01*
X143970599Y-107584549D02*
X143913718Y-107620290D01*
X144018102Y-107537046D02*
X143970599Y-107584549D01*
X143250309Y-106657521D02*
X141207521Y-106657521D01*
X144053843Y-107480165D02*
X144018102Y-107537046D01*
X143913718Y-107620290D02*
X143850309Y-107642478D01*
X143716796Y-107642478D02*
X143653387Y-107620290D01*
X144083553Y-107350000D02*
X144076031Y-107416756D01*
X143783553Y-107650000D02*
X143716796Y-107642478D01*
X144091074Y-106883243D02*
X144083553Y-106950000D01*
X143850309Y-107642478D02*
X143783553Y-107650000D01*
X144149003Y-106762953D02*
X144113262Y-106819834D01*
X144196506Y-106715450D02*
X144149003Y-106762953D01*
X144076031Y-107416756D02*
X144053843Y-107480165D01*
X143483553Y-106950000D02*
X143476031Y-106883243D01*
X144083553Y-106950000D02*
X144083553Y-107350000D01*
X144253387Y-106679709D02*
X144196506Y-106715450D01*
X141207521Y-106657521D02*
X141200000Y-106650000D01*
X143596506Y-107584549D02*
X143549003Y-107537046D01*
X144316796Y-106657521D02*
X144253387Y-106679709D01*
X144383553Y-106650000D02*
X144316796Y-106657521D01*
X165600000Y-106650000D02*
X144383553Y-106650000D01*
X144113262Y-106819834D02*
X144091074Y-106883243D01*
X165675000Y-106575000D02*
X165600000Y-106650000D01*
X137575000Y-108300000D02*
X137875000Y-108600000D01*
X137575000Y-104425000D02*
X137575000Y-108300000D01*
X137875000Y-108600000D02*
X138950000Y-108600000D01*
X141900000Y-102375000D02*
X139625000Y-102375000D01*
X139625000Y-102375000D02*
X137575000Y-104425000D01*
X140325000Y-108600000D02*
X140325000Y-107725000D01*
X140100000Y-107500000D02*
X138925000Y-107500000D01*
X140325000Y-107725000D02*
X140100000Y-107500000D01*
X138925000Y-107500000D02*
X138750000Y-107325000D01*
X138750000Y-107325000D02*
X138750000Y-104450000D01*
X141425000Y-103225000D02*
X142775000Y-103225000D01*
X138750000Y-104450000D02*
X140100000Y-103100000D01*
X140100000Y-103100000D02*
X141300000Y-103100000D01*
X142775000Y-103225000D02*
X143125000Y-102875000D01*
X141300000Y-103100000D02*
X141425000Y-103225000D01*
X143125000Y-102875000D02*
X143125000Y-102400000D01*
X152330000Y-74020000D02*
X151700000Y-74650000D01*
X151700000Y-74650000D02*
X151700000Y-76275000D01*
X152330000Y-71290000D02*
X152330000Y-74020000D01*
X154700000Y-91200000D02*
X154675000Y-91175000D01*
X154675000Y-91175000D02*
X154675000Y-90225000D01*
X154675000Y-90225000D02*
X151700000Y-87250000D01*
X151700000Y-87250000D02*
X151700000Y-76275000D01*
X151335461Y-70295461D02*
X152330000Y-71290000D01*
X151030096Y-70295461D02*
X151335461Y-70295461D01*
X152425000Y-75175000D02*
X153570096Y-74029904D01*
X155550000Y-92725000D02*
X155550000Y-90150000D01*
X152425000Y-87025000D02*
X152425000Y-75175000D01*
X155550000Y-90150000D02*
X152425000Y-87025000D01*
X155525000Y-92750000D02*
X155550000Y-92725000D01*
X153570096Y-74029904D02*
X153570096Y-72835461D01*
X154550000Y-95450000D02*
X152475000Y-95450000D01*
X152475000Y-95450000D02*
X152035000Y-95890000D01*
X152035000Y-95890000D02*
X147915000Y-95890000D01*
X147915000Y-95890000D02*
X147475000Y-95450000D01*
X147475000Y-95450000D02*
X135725000Y-95450000D01*
X156925000Y-95475000D02*
X156900000Y-95450000D01*
X156900000Y-95450000D02*
X154550000Y-95450000D01*
X154550000Y-95450000D02*
X154775000Y-95450000D01*
X147875000Y-94700000D02*
X134925000Y-94700000D01*
X148400000Y-95225000D02*
X147875000Y-94700000D01*
X151400000Y-95225000D02*
X148400000Y-95225000D01*
X151925000Y-94700000D02*
X151400000Y-95225000D01*
X154750000Y-94700000D02*
X151925000Y-94700000D01*
X157850000Y-94675000D02*
X157825000Y-94700000D01*
X157825000Y-94700000D02*
X154750000Y-94700000D01*
X154750000Y-94700000D02*
X154925000Y-94700000D01*
X159900000Y-85225000D02*
X158925000Y-85225000D01*
X158925000Y-85225000D02*
X158150000Y-84450000D01*
X158150000Y-84450000D02*
X158150000Y-82150000D01*
X146000000Y-76625000D02*
X146000000Y-72885365D01*
X146000000Y-72885365D02*
X145950096Y-72835461D01*
X145950096Y-70295461D02*
X146195461Y-70295461D01*
X146195461Y-70295461D02*
X147230000Y-71330000D01*
X147230000Y-71330000D02*
X147230000Y-77395000D01*
X147230000Y-77395000D02*
X147225000Y-77400000D01*
X177460000Y-100740000D02*
X165300000Y-100740000D01*
X165300000Y-100740000D02*
X163560000Y-99000000D01*
X163560000Y-99000000D02*
X152125000Y-99000000D01*
X152125000Y-99000000D02*
X152050000Y-99075000D01*
X147325000Y-81175000D02*
X147350000Y-81150000D01*
X147325000Y-82535000D02*
X147325000Y-81175000D01*
X147650000Y-91500000D02*
X147650000Y-82860000D01*
X147650000Y-82860000D02*
X147325000Y-82535000D01*
X165000000Y-99360000D02*
X163690000Y-98050000D01*
X176640000Y-97490000D02*
X176640000Y-99160000D01*
X176640000Y-99160000D02*
X176440000Y-99360000D01*
X176440000Y-99360000D02*
X165000000Y-99360000D01*
X163690000Y-98050000D02*
X147625000Y-98050000D01*
X147625000Y-98050000D02*
X147600000Y-98075000D01*
X125030000Y-94860000D02*
X125030000Y-93980000D01*
X125030000Y-93980000D02*
X125260000Y-93750000D01*
X125260000Y-93750000D02*
X146850000Y-93750000D01*
X146500000Y-82100000D02*
X146500000Y-82610000D01*
X146500000Y-82610000D02*
X146850000Y-82960000D01*
X146850000Y-82960000D02*
X146850000Y-93300000D01*
X146850000Y-93300000D02*
X146850000Y-93750000D01*
X167132000Y-94650000D02*
X167900000Y-94650000D01*
X167900000Y-94650000D02*
X168450000Y-94100000D01*
X168450000Y-94100000D02*
X168450000Y-90950000D01*
X168450000Y-90950000D02*
X168725000Y-90675000D01*
X168725000Y-90675000D02*
X173050000Y-90675000D01*
X173050000Y-90675000D02*
X173047000Y-90678000D01*
X166875000Y-104775000D02*
X140800000Y-104775000D01*
X167300000Y-107230000D02*
X167300000Y-105200000D01*
X167300000Y-105200000D02*
X166875000Y-104775000D01*
X140800000Y-104775000D02*
X140600000Y-104575000D01*
X140600000Y-104575000D02*
X140600000Y-103875000D01*
X176220000Y-80880000D02*
X177600000Y-82260000D01*
X177600000Y-82260000D02*
X179700000Y-82260000D01*
X169590000Y-80880000D02*
X176220000Y-80880000D01*
X179700000Y-82260000D02*
X180090000Y-81870000D01*
X180090000Y-81870000D02*
X180090000Y-78730000D01*
X180090000Y-78730000D02*
X180360000Y-78460000D01*
X180360000Y-78460000D02*
X182640000Y-78460000D01*
X163720000Y-96440000D02*
X163690000Y-96470000D01*
X163690000Y-96470000D02*
X139330000Y-96470000D01*
X159890000Y-84300000D02*
X164760000Y-84300000D01*
X164760000Y-84300000D02*
X165440000Y-84980000D01*
X165440000Y-84980000D02*
X173100000Y-84980000D01*
X173100000Y-84980000D02*
X173500000Y-84580000D01*
X173500000Y-84580000D02*
X173500000Y-83950000D01*
X173500000Y-82010000D02*
X176240000Y-82010000D01*
X177050000Y-82820000D02*
X180130000Y-82820000D01*
X180930000Y-79870000D02*
X184600000Y-79870000D01*
X176240000Y-82010000D02*
X177050000Y-82820000D01*
X180130000Y-82820000D02*
X180650000Y-82300000D01*
X184600000Y-79870000D02*
X184880000Y-79590000D01*
X180650000Y-82300000D02*
X180650000Y-80150000D01*
X180650000Y-80150000D02*
X180930000Y-79870000D01*
X184880000Y-79590000D02*
X184880000Y-78460000D01*
X173500000Y-82010000D02*
X173500000Y-83950000D01*
X139450000Y-87450000D02*
X142240000Y-87450000D01*
X167420000Y-87150000D02*
X175400000Y-87150000D01*
X175400000Y-87150000D02*
X175830000Y-86720000D01*
X175830000Y-86720000D02*
X175830000Y-82940000D01*
D22*
X167420000Y-87150000D02*
X167420000Y-89190000D01*
X167420000Y-89190000D02*
X167134000Y-89476000D01*
X167134000Y-89476000D02*
X167132000Y-89476000D01*
D24*
X167480000Y-80060000D02*
X167480000Y-80424000D01*
X167480000Y-80424000D02*
X167132000Y-80772000D01*
X167132000Y-80772000D02*
X166370000Y-80772000D01*
X167480000Y-80060000D02*
X167410000Y-80060000D01*
D22*
X166450000Y-82460000D02*
X166450000Y-80852000D01*
D23*
X166450000Y-80852000D02*
X166370000Y-80772000D01*
D24*
X166370000Y-80772000D02*
X160572000Y-80772000D01*
X160572000Y-80772000D02*
X159250000Y-79450000D01*
X159250000Y-79450000D02*
X155050000Y-79450000D01*
D23*
X178640000Y-83900000D02*
X175830000Y-83900000D01*
X178620000Y-88950000D02*
X178620000Y-83920000D01*
X175830000Y-83900000D02*
X175830000Y-82940000D01*
X178620000Y-83920000D02*
X178640000Y-83900000D01*
D22*
X166450000Y-83150000D02*
X166450000Y-82460000D01*
D23*
X166450000Y-82460000D02*
X166420000Y-82430000D01*
D24*
X113240000Y-78850000D02*
X113240000Y-91040000D01*
D23*
X113240000Y-91040000D02*
X113230000Y-91050000D01*
D24*
X113240000Y-78850000D02*
X113600000Y-78490000D01*
X113600000Y-78490000D02*
X141540000Y-78490000D01*
X141540000Y-78490000D02*
X141550000Y-78500000D01*
D22*
X167132000Y-92110000D02*
X167132000Y-89476000D01*
D23*
X167132000Y-89476000D02*
X167200000Y-89408000D01*
X161180000Y-72890000D02*
X161180000Y-75200000D01*
X157850000Y-90200000D02*
X157850000Y-89525000D01*
X157850000Y-89525000D02*
X154225000Y-85900000D01*
X154225000Y-85900000D02*
X154225000Y-76600000D01*
X154225000Y-76600000D02*
X155075000Y-75750000D01*
X155075000Y-75750000D02*
X160630000Y-75750000D01*
X160630000Y-75750000D02*
X161180000Y-75200000D01*
X157825000Y-91400000D02*
X157175000Y-91400000D01*
X156775000Y-89475000D02*
X153700000Y-86400000D01*
X156850000Y-75225000D02*
X157420000Y-74655000D01*
X157175000Y-91400000D02*
X156775000Y-91000000D01*
X156775000Y-91000000D02*
X156775000Y-89475000D01*
X153700000Y-86400000D02*
X153700000Y-76175000D01*
X153700000Y-76175000D02*
X154650000Y-75225000D01*
X154650000Y-75225000D02*
X156850000Y-75225000D01*
X157420000Y-74655000D02*
X157420000Y-71570000D01*
X157420000Y-71570000D02*
X156200000Y-70350000D01*
X156200000Y-70350000D02*
X156100000Y-70350000D01*
X156120000Y-72820000D02*
X156120000Y-74205000D01*
X153100000Y-86700000D02*
X156200000Y-89800000D01*
X156120000Y-74205000D02*
X155675000Y-74650000D01*
X155675000Y-74650000D02*
X154050000Y-74650000D01*
X154050000Y-74650000D02*
X153100000Y-75600000D01*
X153100000Y-75600000D02*
X153100000Y-86700000D01*
X156200000Y-89800000D02*
X156200000Y-91975000D01*
X156200000Y-91975000D02*
X156775000Y-92550000D01*
X156775000Y-92550000D02*
X157800000Y-92550000D01*
D22*
X134310000Y-101180000D02*
X144530000Y-101180000D01*
X149825000Y-87500000D02*
X149825000Y-85125000D01*
X149825000Y-87650000D02*
X149825000Y-87500000D01*
D24*
X149825000Y-90625000D02*
X149825000Y-93350000D01*
X149825000Y-90625000D02*
X149825000Y-87650000D01*
X149850000Y-101250000D02*
X144600000Y-101250000D01*
D23*
X144600000Y-101250000D02*
X144530000Y-101180000D01*
D22*
X144650000Y-102400000D02*
X144650000Y-101300000D01*
D24*
X151542000Y-101250000D02*
X149850000Y-101250000D01*
X151700000Y-102400000D02*
X151700000Y-101408000D01*
X151700000Y-101408000D02*
X151542000Y-101250000D01*
D22*
X149825000Y-93350000D02*
X149800000Y-93375000D01*
D23*
X149780000Y-101180000D02*
X149850000Y-101250000D01*
D22*
X144530000Y-101180000D02*
X144650000Y-101300000D01*
X141225000Y-109250000D02*
X141225000Y-107700000D01*
X139954000Y-112014000D02*
X140970000Y-112014000D01*
X140970000Y-112014000D02*
X141225000Y-111759000D01*
X141225000Y-111759000D02*
X141225000Y-109250000D01*
D23*
X140210000Y-98230000D02*
X138362000Y-98230000D01*
X138362000Y-98230000D02*
X136906000Y-96774000D01*
X136906000Y-96774000D02*
X130126000Y-96774000D01*
X130126000Y-96774000D02*
X129800000Y-97100000D01*
X129800000Y-97100000D02*
X129800000Y-97950000D01*
X127700000Y-96600000D02*
X127700000Y-97900000D01*
X141150000Y-97400000D02*
X138548000Y-97400000D01*
X138548000Y-97400000D02*
X137414000Y-96266000D01*
X137414000Y-96266000D02*
X128034000Y-96266000D01*
X128034000Y-96266000D02*
X127700000Y-96600000D01*
X162814000Y-76200000D02*
X164275000Y-76200000D01*
X164275000Y-76200000D02*
X164950000Y-75525000D01*
X164950000Y-75525000D02*
X164950000Y-71660000D01*
X164950000Y-71660000D02*
X166260000Y-70350000D01*
X149770000Y-71410000D02*
X149770000Y-75200000D01*
X149770000Y-75200000D02*
X149770000Y-75400000D01*
X149750000Y-78150000D02*
X149770000Y-78130000D01*
X149770000Y-78130000D02*
X149770000Y-75200000D01*
X148655461Y-70295461D02*
X149770000Y-71410000D01*
X148490096Y-70295461D02*
X148655461Y-70295461D01*
X125210000Y-85270000D02*
X125230000Y-85290000D01*
X125230000Y-85290000D02*
X142200000Y-85290000D01*
X181850000Y-86600000D02*
X181860000Y-86590000D01*
X181860000Y-86590000D02*
X181860000Y-85180000D01*
X112522000Y-94234000D02*
X112522000Y-94488000D01*
X112522000Y-94488000D02*
X112784000Y-94750000D01*
X112784000Y-94750000D02*
X117390000Y-94750000D01*
X117780000Y-94360000D02*
X117780000Y-89910000D01*
X117390000Y-94750000D02*
X117780000Y-94360000D01*
X117780000Y-89910000D02*
X118060000Y-89630000D01*
X118060000Y-89630000D02*
X144170000Y-89630000D01*
X144170000Y-89630000D02*
X144480000Y-89320000D01*
X144480000Y-89320000D02*
X144480000Y-87660000D01*
X111470000Y-91190000D02*
X111470000Y-94990000D01*
X111470000Y-94990000D02*
X111780000Y-95300000D01*
X111780000Y-95300000D02*
X120570000Y-95300000D01*
X120570000Y-95300000D02*
X120610000Y-95260000D01*
X120600000Y-99925000D02*
X120610000Y-99935000D01*
X120925000Y-103850000D02*
X123050000Y-103850000D01*
X123400000Y-104200000D02*
X123400000Y-104975000D01*
X120610000Y-99935000D02*
X120610000Y-103535000D01*
X120610000Y-103535000D02*
X120925000Y-103850000D01*
X123050000Y-103850000D02*
X123400000Y-104200000D01*
X144698346Y-81459304D02*
X144698346Y-82024989D01*
X143545461Y-70295461D02*
X144698346Y-71448346D01*
X144698346Y-71448346D02*
X144698346Y-81459304D01*
X143410096Y-70295461D02*
X143545461Y-70295461D01*
X143670000Y-82050000D02*
X143670000Y-75020000D01*
X143670000Y-75020000D02*
X143250000Y-74600000D01*
X143250000Y-74600000D02*
X141425000Y-74600000D01*
X117620000Y-88550000D02*
X117620000Y-89140000D01*
X117620000Y-89140000D02*
X116940000Y-89820000D01*
X116940000Y-89820000D02*
X116940000Y-93360000D01*
X116940000Y-93360000D02*
X116940000Y-93630000D01*
X119740000Y-99140000D02*
X119740000Y-106400000D01*
X119725000Y-99125000D02*
X119740000Y-99140000D01*
X119740000Y-106400000D02*
X119770000Y-106430000D01*
X161798000Y-76200000D02*
X161798000Y-75452000D01*
X161798000Y-75452000D02*
X162450000Y-74800000D01*
X162450000Y-74800000D02*
X162450000Y-71620000D01*
X162450000Y-71620000D02*
X161180000Y-70350000D01*
D28*
G36*
X191191603Y-68125970D02*
X192492945Y-68385020D01*
X193585717Y-69114949D01*
X194316296Y-70207283D01*
X194576121Y-71508470D01*
X194619874Y-120687000D01*
X194454032Y-121739541D01*
X193975474Y-122680213D01*
X193229523Y-123426827D01*
X192289281Y-123906220D01*
X191236882Y-124073000D01*
X113036558Y-124073000D01*
X111984445Y-123906314D01*
X111044405Y-123427182D01*
X110298495Y-122680940D01*
X109819778Y-121740682D01*
X109694565Y-120948060D01*
X111139652Y-120948060D01*
X111445012Y-121687086D01*
X112009940Y-122253001D01*
X112748432Y-122559650D01*
X113548060Y-122560348D01*
X114287086Y-122254988D01*
X114853001Y-121690060D01*
X115159650Y-120951568D01*
X115159653Y-120948060D01*
X169139652Y-120948060D01*
X169445012Y-121687086D01*
X170009940Y-122253001D01*
X170748432Y-122559650D01*
X171548060Y-122560348D01*
X172287086Y-122254988D01*
X172853001Y-121690060D01*
X173159650Y-120951568D01*
X173160348Y-120151940D01*
X172854988Y-119412914D01*
X172290060Y-118846999D01*
X171551568Y-118540350D01*
X170751940Y-118539652D01*
X170012914Y-118845012D01*
X169446999Y-119409940D01*
X169140350Y-120148432D01*
X169139652Y-120948060D01*
X115159653Y-120948060D01*
X115160348Y-120151940D01*
X114854988Y-119412914D01*
X114290060Y-118846999D01*
X113551568Y-118540350D01*
X112751940Y-118539652D01*
X112012914Y-118845012D01*
X111446999Y-119409940D01*
X111140350Y-120148432D01*
X111139652Y-120948060D01*
X109694565Y-120948060D01*
X109653561Y-120688505D01*
X109655045Y-117350000D01*
X131590000Y-117350000D01*
X131614891Y-117475133D01*
X131614821Y-117554971D01*
X131645578Y-117629410D01*
X131670688Y-117755644D01*
X131741568Y-117861724D01*
X131772058Y-117935515D01*
X131828963Y-117992519D01*
X131900467Y-118099533D01*
X132006546Y-118170413D01*
X132062954Y-118226919D01*
X132137342Y-118257807D01*
X132244356Y-118329312D01*
X132369487Y-118354202D01*
X132443223Y-118384820D01*
X132523765Y-118384890D01*
X132650000Y-118410000D01*
X153000000Y-118410000D01*
X153125133Y-118385109D01*
X153204971Y-118385179D01*
X153279410Y-118354422D01*
X153405644Y-118329312D01*
X153511724Y-118258432D01*
X153585515Y-118227942D01*
X153642519Y-118171037D01*
X153749533Y-118099533D01*
X153820413Y-117993454D01*
X153876919Y-117937046D01*
X153907807Y-117862658D01*
X153979312Y-117755644D01*
X154004202Y-117630513D01*
X154034820Y-117556777D01*
X154034890Y-117476235D01*
X154060000Y-117350000D01*
X154035109Y-117224867D01*
X154035179Y-117145029D01*
X154004422Y-117070590D01*
X153979312Y-116944356D01*
X153908432Y-116838276D01*
X153877942Y-116764485D01*
X153821037Y-116707481D01*
X153749533Y-116600467D01*
X153643454Y-116529587D01*
X153587046Y-116473081D01*
X153512658Y-116442193D01*
X153405644Y-116370688D01*
X153280513Y-116345798D01*
X153206777Y-116315180D01*
X153126235Y-116315110D01*
X153000000Y-116290000D01*
X132650000Y-116290000D01*
X132524867Y-116314891D01*
X132445029Y-116314821D01*
X132370590Y-116345578D01*
X132244356Y-116370688D01*
X132138276Y-116441568D01*
X132064485Y-116472058D01*
X132007481Y-116528963D01*
X131900467Y-116600467D01*
X131829587Y-116706546D01*
X131773081Y-116762954D01*
X131742193Y-116837342D01*
X131670688Y-116944356D01*
X131645798Y-117069487D01*
X131615180Y-117143223D01*
X131615110Y-117223765D01*
X131590000Y-117350000D01*
X109655045Y-117350000D01*
X109663066Y-99310167D01*
X118789838Y-99310167D01*
X118931883Y-99653943D01*
X118980000Y-99702144D01*
X118980000Y-105897485D01*
X118977808Y-105899673D01*
X118835162Y-106243201D01*
X118834838Y-106615167D01*
X118976883Y-106958943D01*
X119239673Y-107222192D01*
X119583201Y-107364838D01*
X119955167Y-107365162D01*
X120298943Y-107223117D01*
X120562192Y-106960327D01*
X120704838Y-106616799D01*
X120705162Y-106244833D01*
X120563117Y-105901057D01*
X120500000Y-105837830D01*
X120500000Y-104462505D01*
X120634160Y-104552148D01*
X120925000Y-104610000D01*
X122539158Y-104610000D01*
X122465162Y-104788201D01*
X122464838Y-105160167D01*
X122606883Y-105503943D01*
X122869673Y-105767192D01*
X123213201Y-105909838D01*
X123585167Y-105910162D01*
X123928943Y-105768117D01*
X124192192Y-105505327D01*
X124334838Y-105161799D01*
X124335162Y-104789833D01*
X124193117Y-104446057D01*
X124160000Y-104412882D01*
X124160000Y-104200000D01*
X124102148Y-103909161D01*
X123937401Y-103662599D01*
X123587401Y-103312599D01*
X123340839Y-103147852D01*
X123050000Y-103090000D01*
X121370000Y-103090000D01*
X121370000Y-100477480D01*
X121392192Y-100455327D01*
X121534838Y-100111799D01*
X121535162Y-99739833D01*
X121393117Y-99396057D01*
X121130327Y-99132808D01*
X120786799Y-98990162D01*
X120660118Y-98990052D01*
X120660162Y-98939833D01*
X120518117Y-98596057D01*
X120255327Y-98332808D01*
X119911799Y-98190162D01*
X119539833Y-98189838D01*
X119196057Y-98331883D01*
X118932808Y-98594673D01*
X118790162Y-98938201D01*
X118789838Y-99310167D01*
X109663066Y-99310167D01*
X109666594Y-91375167D01*
X110534838Y-91375167D01*
X110676883Y-91718943D01*
X110710000Y-91752118D01*
X110710000Y-94990000D01*
X110767852Y-95280839D01*
X110932599Y-95527401D01*
X111242599Y-95837401D01*
X111489160Y-96002148D01*
X111780000Y-96060000D01*
X120098477Y-96060000D01*
X120423201Y-96194838D01*
X120795167Y-96195162D01*
X121138943Y-96053117D01*
X121402192Y-95790327D01*
X121544838Y-95446799D01*
X121545162Y-95074833D01*
X121403117Y-94731057D01*
X121140327Y-94467808D01*
X120796799Y-94325162D01*
X120424833Y-94324838D01*
X120081057Y-94466883D01*
X120007812Y-94540000D01*
X118504196Y-94540000D01*
X118540000Y-94360000D01*
X118540000Y-90390000D01*
X144170000Y-90390000D01*
X144460839Y-90332148D01*
X144707401Y-90167401D01*
X145017401Y-89857401D01*
X145182148Y-89610840D01*
X145240000Y-89320000D01*
X145240000Y-88222463D01*
X145272192Y-88190327D01*
X145414838Y-87846799D01*
X145415162Y-87474833D01*
X145273117Y-87131057D01*
X145010327Y-86867808D01*
X144666799Y-86725162D01*
X144294833Y-86724838D01*
X143951057Y-86866883D01*
X143687808Y-87129673D01*
X143545162Y-87473201D01*
X143544838Y-87845167D01*
X143686883Y-88188943D01*
X143720000Y-88222118D01*
X143720000Y-88870000D01*
X118499528Y-88870000D01*
X118554838Y-88736799D01*
X118555162Y-88364833D01*
X118413117Y-88021057D01*
X118150327Y-87757808D01*
X117854977Y-87635167D01*
X138514838Y-87635167D01*
X138656883Y-87978943D01*
X138919673Y-88242192D01*
X139263201Y-88384838D01*
X139635167Y-88385162D01*
X139978943Y-88243117D01*
X140012118Y-88210000D01*
X141677537Y-88210000D01*
X141709673Y-88242192D01*
X142053201Y-88384838D01*
X142425167Y-88385162D01*
X142768943Y-88243117D01*
X143032192Y-87980327D01*
X143174838Y-87636799D01*
X143175162Y-87264833D01*
X143033117Y-86921057D01*
X142770327Y-86657808D01*
X142426799Y-86515162D01*
X142054833Y-86514838D01*
X141711057Y-86656883D01*
X141677882Y-86690000D01*
X140012463Y-86690000D01*
X139980327Y-86657808D01*
X139636799Y-86515162D01*
X139264833Y-86514838D01*
X138921057Y-86656883D01*
X138657808Y-86919673D01*
X138515162Y-87263201D01*
X138514838Y-87635167D01*
X117854977Y-87635167D01*
X117806799Y-87615162D01*
X117434833Y-87614838D01*
X117091057Y-87756883D01*
X116827808Y-88019673D01*
X116685162Y-88363201D01*
X116684838Y-88735167D01*
X116762375Y-88922823D01*
X116402599Y-89282599D01*
X116237852Y-89529161D01*
X116180000Y-89820000D01*
X116180000Y-93067537D01*
X116147808Y-93099673D01*
X116005162Y-93443201D01*
X116004838Y-93815167D01*
X116077077Y-93990000D01*
X113432853Y-93990000D01*
X113315117Y-93705057D01*
X113052327Y-93441808D01*
X112708799Y-93299162D01*
X112336833Y-93298838D01*
X112230000Y-93342980D01*
X112230000Y-91752463D01*
X112262192Y-91720327D01*
X112324801Y-91569548D01*
X112352058Y-91635515D01*
X112642954Y-91926919D01*
X113023223Y-92084820D01*
X113434971Y-92085179D01*
X113815515Y-91927942D01*
X114106919Y-91637046D01*
X114264820Y-91256777D01*
X114265179Y-90845029D01*
X114200000Y-90687283D01*
X114200000Y-85455167D01*
X124274838Y-85455167D01*
X124416883Y-85798943D01*
X124679673Y-86062192D01*
X125023201Y-86204838D01*
X125395167Y-86205162D01*
X125738943Y-86063117D01*
X125752083Y-86050000D01*
X141637537Y-86050000D01*
X141669673Y-86082192D01*
X142013201Y-86224838D01*
X142385167Y-86225162D01*
X142728943Y-86083117D01*
X142992192Y-85820327D01*
X143134838Y-85476799D01*
X143135162Y-85104833D01*
X142993117Y-84761057D01*
X142730327Y-84497808D01*
X142386799Y-84355162D01*
X142014833Y-84354838D01*
X141671057Y-84496883D01*
X141637882Y-84530000D01*
X125792428Y-84530000D01*
X125740327Y-84477808D01*
X125396799Y-84335162D01*
X125024833Y-84334838D01*
X124681057Y-84476883D01*
X124417808Y-84739673D01*
X124275162Y-85083201D01*
X124274838Y-85455167D01*
X114200000Y-85455167D01*
X114200000Y-82304971D01*
X124864821Y-82304971D01*
X125022058Y-82685515D01*
X125312954Y-82976919D01*
X125693223Y-83134820D01*
X126104971Y-83135179D01*
X126485515Y-82977942D01*
X126503488Y-82960000D01*
X130846064Y-82960000D01*
X130862954Y-82976919D01*
X131243223Y-83134820D01*
X131654971Y-83135179D01*
X132035515Y-82977942D01*
X132053488Y-82960000D01*
X137771064Y-82960000D01*
X137787954Y-82976919D01*
X138168223Y-83134820D01*
X138579971Y-83135179D01*
X138960515Y-82977942D01*
X139251919Y-82687046D01*
X139409820Y-82306777D01*
X139410179Y-81895029D01*
X139252942Y-81514485D01*
X138962046Y-81223081D01*
X138581777Y-81065180D01*
X138170029Y-81064821D01*
X137789485Y-81222058D01*
X137771512Y-81240000D01*
X132053936Y-81240000D01*
X132037046Y-81223081D01*
X131656777Y-81065180D01*
X131245029Y-81064821D01*
X130864485Y-81222058D01*
X130846512Y-81240000D01*
X126503936Y-81240000D01*
X126487046Y-81223081D01*
X126106777Y-81065180D01*
X125695029Y-81064821D01*
X125314485Y-81222058D01*
X125023081Y-81512954D01*
X124865180Y-81893223D01*
X124864821Y-82304971D01*
X114200000Y-82304971D01*
X114200000Y-79450000D01*
X141138953Y-79450000D01*
X141343223Y-79534820D01*
X141754971Y-79535179D01*
X142135515Y-79377942D01*
X142426919Y-79087046D01*
X142584820Y-78706777D01*
X142585179Y-78295029D01*
X142427942Y-77914485D01*
X142137046Y-77623081D01*
X141756777Y-77465180D01*
X141345029Y-77464821D01*
X141187283Y-77530000D01*
X113600005Y-77530000D01*
X113600000Y-77529999D01*
X113232624Y-77603076D01*
X112921177Y-77811177D01*
X112921175Y-77811180D01*
X112561177Y-78171177D01*
X112353076Y-78482624D01*
X112279999Y-78850000D01*
X112280000Y-78850005D01*
X112280000Y-90638953D01*
X112266960Y-90670357D01*
X112263117Y-90661057D01*
X112000327Y-90397808D01*
X111656799Y-90255162D01*
X111284833Y-90254838D01*
X110941057Y-90396883D01*
X110677808Y-90659673D01*
X110535162Y-91003201D01*
X110534838Y-91375167D01*
X109666594Y-91375167D01*
X109675232Y-71948060D01*
X111139652Y-71948060D01*
X111445012Y-72687086D01*
X112009940Y-73253001D01*
X112748432Y-73559650D01*
X113548060Y-73560348D01*
X114287086Y-73254988D01*
X114853001Y-72690060D01*
X115159650Y-71951568D01*
X115159655Y-71945000D01*
X116497560Y-71945000D01*
X116497560Y-73695000D01*
X116546843Y-73942765D01*
X116687191Y-74152809D01*
X116897235Y-74293157D01*
X117145000Y-74342440D01*
X118895000Y-74342440D01*
X119142765Y-74293157D01*
X119352809Y-74152809D01*
X119493157Y-73942765D01*
X119502137Y-73897618D01*
X119703537Y-74099370D01*
X120258325Y-74329738D01*
X120859040Y-74330262D01*
X121414229Y-74100862D01*
X121830353Y-73685464D01*
X122243537Y-74099370D01*
X122798325Y-74329738D01*
X123399040Y-74330262D01*
X123954229Y-74100862D01*
X124370353Y-73685464D01*
X124783537Y-74099370D01*
X125338325Y-74329738D01*
X125939040Y-74330262D01*
X126115000Y-74257557D01*
X126115000Y-75625000D01*
X126172852Y-75915839D01*
X126337599Y-76162401D01*
X126737599Y-76562401D01*
X126984160Y-76727148D01*
X127032414Y-76736746D01*
X127275000Y-76785000D01*
X133587668Y-76785000D01*
X133694673Y-76892192D01*
X134038201Y-77034838D01*
X134410167Y-77035162D01*
X134753943Y-76893117D01*
X135017192Y-76630327D01*
X135159838Y-76286799D01*
X135160162Y-75914833D01*
X135018117Y-75571057D01*
X134984790Y-75537672D01*
X135017192Y-75505327D01*
X135159838Y-75161799D01*
X135160162Y-74789833D01*
X135018117Y-74446057D01*
X134755327Y-74182808D01*
X134411799Y-74040162D01*
X134175242Y-74039956D01*
X134530353Y-73685464D01*
X134943537Y-74099370D01*
X135498325Y-74329738D01*
X136099040Y-74330262D01*
X136654229Y-74100862D01*
X136873413Y-73882060D01*
X137457545Y-73882060D01*
X137540884Y-74135953D01*
X138105306Y-74341590D01*
X138705458Y-74315579D01*
X139139116Y-74135953D01*
X139222455Y-73882060D01*
X138340000Y-72999605D01*
X137457545Y-73882060D01*
X136873413Y-73882060D01*
X137079370Y-73676463D01*
X137093690Y-73641976D01*
X137277940Y-73702455D01*
X138160395Y-72820000D01*
X137277940Y-71937545D01*
X137094129Y-71997880D01*
X137080862Y-71965771D01*
X136665464Y-71549647D01*
X137070353Y-71145464D01*
X137483537Y-71559370D01*
X137518024Y-71573690D01*
X137457545Y-71757940D01*
X138340000Y-72640395D01*
X139222455Y-71757940D01*
X139162120Y-71574129D01*
X139194229Y-71560862D01*
X139610353Y-71145464D01*
X140014536Y-71550353D01*
X139600630Y-71963537D01*
X139586310Y-71998024D01*
X139402060Y-71937545D01*
X138519605Y-72820000D01*
X139402060Y-73702455D01*
X139585871Y-73642120D01*
X139599138Y-73674229D01*
X140023537Y-74099370D01*
X140532688Y-74310788D01*
X140490162Y-74413201D01*
X140489838Y-74785167D01*
X140631883Y-75128943D01*
X140894673Y-75392192D01*
X141238201Y-75534838D01*
X141610167Y-75535162D01*
X141953943Y-75393117D01*
X141987118Y-75360000D01*
X142910000Y-75360000D01*
X142910000Y-81487537D01*
X142877808Y-81519673D01*
X142735162Y-81863201D01*
X142734838Y-82235167D01*
X142876883Y-82578943D01*
X143139673Y-82842192D01*
X143483201Y-82984838D01*
X143855167Y-82985162D01*
X144198943Y-82843117D01*
X144208207Y-82833869D01*
X144511547Y-82959827D01*
X144883513Y-82960151D01*
X145227289Y-82818106D01*
X145490538Y-82555316D01*
X145583729Y-82330888D01*
X145706883Y-82628943D01*
X145752947Y-82675087D01*
X145797852Y-82900839D01*
X145962599Y-83147401D01*
X146090000Y-83274802D01*
X146090000Y-92990000D01*
X125260000Y-92990000D01*
X124969161Y-93047852D01*
X124722599Y-93212599D01*
X124492599Y-93442599D01*
X124327852Y-93689161D01*
X124270000Y-93980000D01*
X124270000Y-94297537D01*
X124237808Y-94329673D01*
X124095162Y-94673201D01*
X124094838Y-95045167D01*
X124236883Y-95388943D01*
X124499673Y-95652192D01*
X124843201Y-95794838D01*
X125215167Y-95795162D01*
X125558943Y-95653117D01*
X125822192Y-95390327D01*
X125964838Y-95046799D01*
X125965162Y-94674833D01*
X125897055Y-94510000D01*
X133991491Y-94510000D01*
X133990162Y-94513201D01*
X133989838Y-94885167D01*
X134131883Y-95228943D01*
X134394673Y-95492192D01*
X134427926Y-95506000D01*
X128034000Y-95506000D01*
X127743160Y-95563852D01*
X127496599Y-95728599D01*
X127162599Y-96062599D01*
X126997852Y-96309161D01*
X126940000Y-96600000D01*
X126940000Y-96715453D01*
X126916485Y-96725169D01*
X126526539Y-97114436D01*
X126315241Y-97623298D01*
X126314760Y-98174285D01*
X126525169Y-98683515D01*
X126914436Y-99073461D01*
X126977875Y-99099803D01*
X126916485Y-99125169D01*
X126526539Y-99514436D01*
X126315241Y-100023298D01*
X126314760Y-100574285D01*
X126525169Y-101083515D01*
X126914436Y-101473461D01*
X127423298Y-101684759D01*
X127974285Y-101685240D01*
X128483515Y-101474831D01*
X128750123Y-101208687D01*
X129014436Y-101473461D01*
X129523298Y-101684759D01*
X130074285Y-101685240D01*
X130583515Y-101474831D01*
X130673531Y-101384971D01*
X133274821Y-101384971D01*
X133432058Y-101765515D01*
X133722954Y-102056919D01*
X134103223Y-102214820D01*
X134514971Y-102215179D01*
X134895515Y-102057942D01*
X134913488Y-102040000D01*
X138885198Y-102040000D01*
X137037599Y-103887599D01*
X136872852Y-104134161D01*
X136815000Y-104425000D01*
X136815000Y-108300000D01*
X136872852Y-108590839D01*
X137037599Y-108837401D01*
X137337599Y-109137401D01*
X137584161Y-109302148D01*
X137875000Y-109360000D01*
X138387537Y-109360000D01*
X138419673Y-109392192D01*
X138763201Y-109534838D01*
X139135167Y-109535162D01*
X139478943Y-109393117D01*
X139637546Y-109234791D01*
X139794673Y-109392192D01*
X140138201Y-109534838D01*
X140365000Y-109535036D01*
X140365000Y-111063981D01*
X140160777Y-110979180D01*
X139749029Y-110978821D01*
X139368485Y-111136058D01*
X139077081Y-111426954D01*
X138919180Y-111807223D01*
X138918821Y-112218971D01*
X139076058Y-112599515D01*
X139366954Y-112890919D01*
X139747223Y-113048820D01*
X140158971Y-113049179D01*
X140539515Y-112891942D01*
X140557488Y-112874000D01*
X140970000Y-112874000D01*
X141299108Y-112808536D01*
X141578112Y-112622112D01*
X141833112Y-112367112D01*
X142019536Y-112088108D01*
X142085000Y-111759000D01*
X142085000Y-108303936D01*
X142101919Y-108287046D01*
X142259820Y-107906777D01*
X142260179Y-107495029D01*
X142228153Y-107417521D01*
X142729813Y-107417521D01*
X142728331Y-107435086D01*
X142735852Y-107501842D01*
X142761785Y-107583208D01*
X142764201Y-107600326D01*
X142764001Y-107607473D01*
X142765920Y-107612501D01*
X142773723Y-107667770D01*
X142795912Y-107731179D01*
X142824266Y-107779245D01*
X142825901Y-107784376D01*
X142830517Y-107789842D01*
X142839298Y-107804728D01*
X142845460Y-107820871D01*
X142846855Y-107827885D01*
X142849846Y-107832361D01*
X142869753Y-107884512D01*
X142905494Y-107941393D01*
X142943841Y-107981953D01*
X142946576Y-107986590D01*
X142952290Y-107990890D01*
X142964161Y-108003446D01*
X142973758Y-108017809D01*
X142976679Y-108024337D01*
X142980591Y-108028035D01*
X143011602Y-108074447D01*
X143059105Y-108121950D01*
X143105517Y-108152962D01*
X143109215Y-108156873D01*
X143115742Y-108159794D01*
X143130106Y-108169392D01*
X143142662Y-108181262D01*
X143146962Y-108186976D01*
X143151599Y-108189711D01*
X143192159Y-108228058D01*
X143249040Y-108263799D01*
X143301189Y-108283705D01*
X143305666Y-108286697D01*
X143312682Y-108288093D01*
X143328821Y-108294253D01*
X143343703Y-108303032D01*
X143349167Y-108307646D01*
X143354296Y-108309281D01*
X143402373Y-108337641D01*
X143465782Y-108359829D01*
X143521051Y-108367632D01*
X143526079Y-108369551D01*
X143533226Y-108369351D01*
X143550339Y-108371766D01*
X143566811Y-108377017D01*
X143573163Y-108380298D01*
X143578525Y-108380750D01*
X143631700Y-108397699D01*
X143698456Y-108405221D01*
X143754077Y-108400530D01*
X143759407Y-108401282D01*
X143766330Y-108399496D01*
X143783554Y-108398043D01*
X143800774Y-108399496D01*
X143807698Y-108401282D01*
X143813028Y-108400529D01*
X143868651Y-108405221D01*
X143870869Y-108404971D01*
X180164821Y-108404971D01*
X180322058Y-108785515D01*
X180612954Y-109076919D01*
X180993223Y-109234820D01*
X181404971Y-109235179D01*
X181785515Y-109077942D01*
X182076919Y-108787046D01*
X182234820Y-108406777D01*
X182234961Y-108244215D01*
X187827460Y-108244215D01*
X187827460Y-108593585D01*
X187911954Y-109018364D01*
X188152571Y-109378474D01*
X188512681Y-109619091D01*
X188937460Y-109703585D01*
X189362239Y-109619091D01*
X189661847Y-109418900D01*
X190199836Y-109418900D01*
X190286233Y-109853246D01*
X190532270Y-110221466D01*
X190900490Y-110467503D01*
X191334836Y-110553900D01*
X191940084Y-110553900D01*
X192374430Y-110467503D01*
X192742650Y-110221466D01*
X192988687Y-109853246D01*
X193075084Y-109418900D01*
X192988687Y-108984554D01*
X192742650Y-108616334D01*
X192374430Y-108370297D01*
X191940084Y-108283900D01*
X191334836Y-108283900D01*
X190900490Y-108370297D01*
X190532270Y-108616334D01*
X190286233Y-108984554D01*
X190199836Y-109418900D01*
X189661847Y-109418900D01*
X189722349Y-109378474D01*
X189962966Y-109018364D01*
X190047460Y-108593585D01*
X190047460Y-108244215D01*
X189962966Y-107819436D01*
X189722349Y-107459326D01*
X189362239Y-107218709D01*
X188937460Y-107134215D01*
X188512681Y-107218709D01*
X188152571Y-107459326D01*
X187911954Y-107819436D01*
X187827460Y-108244215D01*
X182234961Y-108244215D01*
X182235179Y-107995029D01*
X182080000Y-107619466D01*
X182080000Y-103244215D01*
X187827460Y-103244215D01*
X187827460Y-103593585D01*
X187911954Y-104018364D01*
X188152571Y-104378474D01*
X188512681Y-104619091D01*
X188937460Y-104703585D01*
X189362239Y-104619091D01*
X189722349Y-104378474D01*
X189962966Y-104018364D01*
X190047460Y-103593585D01*
X190047460Y-103244215D01*
X189962966Y-102819436D01*
X189722349Y-102459326D01*
X189661848Y-102418900D01*
X190199836Y-102418900D01*
X190286233Y-102853246D01*
X190532270Y-103221466D01*
X190900490Y-103467503D01*
X191334836Y-103553900D01*
X191940084Y-103553900D01*
X192374430Y-103467503D01*
X192742650Y-103221466D01*
X192988687Y-102853246D01*
X193075084Y-102418900D01*
X192988687Y-101984554D01*
X192742650Y-101616334D01*
X192374430Y-101370297D01*
X191940084Y-101283900D01*
X191334836Y-101283900D01*
X190900490Y-101370297D01*
X190532270Y-101616334D01*
X190286233Y-101984554D01*
X190199836Y-102418900D01*
X189661848Y-102418900D01*
X189362239Y-102218709D01*
X188937460Y-102134215D01*
X188512681Y-102218709D01*
X188152571Y-102459326D01*
X187911954Y-102819436D01*
X187827460Y-103244215D01*
X182080000Y-103244215D01*
X182080000Y-92763936D01*
X182096919Y-92747046D01*
X182254820Y-92366777D01*
X182255179Y-91955029D01*
X182097942Y-91574485D01*
X181807046Y-91283081D01*
X181426777Y-91125180D01*
X181015029Y-91124821D01*
X180634485Y-91282058D01*
X180343081Y-91572954D01*
X180185180Y-91953223D01*
X180184821Y-92364971D01*
X180342058Y-92745515D01*
X180360000Y-92763488D01*
X180360000Y-107576099D01*
X180323081Y-107612954D01*
X180165180Y-107993223D01*
X180164821Y-108404971D01*
X143870869Y-108404971D01*
X143935406Y-108397699D01*
X143988580Y-108380750D01*
X143993944Y-108380298D01*
X144000299Y-108377015D01*
X144016765Y-108371767D01*
X144033879Y-108369351D01*
X144041026Y-108369551D01*
X144046054Y-108367632D01*
X144101323Y-108359829D01*
X144164732Y-108337640D01*
X144212809Y-108309280D01*
X144217938Y-108307645D01*
X144223401Y-108303032D01*
X144238281Y-108294254D01*
X144254424Y-108288092D01*
X144261438Y-108286697D01*
X144265914Y-108283706D01*
X144318065Y-108263799D01*
X144374946Y-108228058D01*
X144415506Y-108189711D01*
X144420143Y-108186976D01*
X144424443Y-108181262D01*
X144436999Y-108169391D01*
X144451362Y-108159794D01*
X144457890Y-108156873D01*
X144461588Y-108152961D01*
X144508000Y-108121950D01*
X144555503Y-108074447D01*
X144586515Y-108028035D01*
X144590426Y-108024337D01*
X144593347Y-108017810D01*
X144602945Y-108003446D01*
X144614815Y-107990890D01*
X144620529Y-107986590D01*
X144623264Y-107981953D01*
X144661611Y-107941393D01*
X144697352Y-107884512D01*
X144717258Y-107832363D01*
X144720250Y-107827886D01*
X144721646Y-107820870D01*
X144727806Y-107804731D01*
X144736585Y-107789848D01*
X144741198Y-107784386D01*
X144742832Y-107779258D01*
X144771194Y-107731179D01*
X144793382Y-107667770D01*
X144801185Y-107612501D01*
X144803104Y-107607473D01*
X144802904Y-107600326D01*
X144805319Y-107583214D01*
X144831252Y-107501854D01*
X144838774Y-107435098D01*
X144836657Y-107410000D01*
X165247766Y-107410000D01*
X165488201Y-107509838D01*
X165860167Y-107510162D01*
X166203943Y-107368117D01*
X166365019Y-107207322D01*
X166364838Y-107415167D01*
X166506883Y-107758943D01*
X166769673Y-108022192D01*
X167113201Y-108164838D01*
X167485167Y-108165162D01*
X167828943Y-108023117D01*
X168092192Y-107760327D01*
X168234838Y-107416799D01*
X168235162Y-107044833D01*
X168093117Y-106701057D01*
X168060000Y-106667882D01*
X168060000Y-105200000D01*
X168002148Y-104909161D01*
X167837401Y-104662599D01*
X167412401Y-104237599D01*
X167165839Y-104072852D01*
X166875000Y-104015000D01*
X141534879Y-104015000D01*
X141534905Y-103985000D01*
X142775000Y-103985000D01*
X143065839Y-103927148D01*
X143312401Y-103762401D01*
X143662401Y-103412401D01*
X143827148Y-103165839D01*
X143847904Y-103061493D01*
X144062954Y-103276919D01*
X144443223Y-103434820D01*
X144854971Y-103435179D01*
X145235515Y-103277942D01*
X145526919Y-102987046D01*
X145684820Y-102606777D01*
X145685166Y-102210000D01*
X149463036Y-102210000D01*
X149643223Y-102284820D01*
X150054971Y-102285179D01*
X150236919Y-102210000D01*
X150665165Y-102210000D01*
X150664821Y-102604971D01*
X150822058Y-102985515D01*
X151112954Y-103276919D01*
X151493223Y-103434820D01*
X151904971Y-103435179D01*
X152285515Y-103277942D01*
X152558962Y-103004971D01*
X153164821Y-103004971D01*
X153322058Y-103385515D01*
X153612954Y-103676919D01*
X153993223Y-103834820D01*
X154404971Y-103835179D01*
X154785515Y-103677942D01*
X154803488Y-103660000D01*
X156896064Y-103660000D01*
X156912954Y-103676919D01*
X157293223Y-103834820D01*
X157704971Y-103835179D01*
X158085515Y-103677942D01*
X158376919Y-103387046D01*
X158534820Y-103006777D01*
X158535179Y-102595029D01*
X158377942Y-102214485D01*
X158087046Y-101923081D01*
X157706777Y-101765180D01*
X157295029Y-101764821D01*
X156914485Y-101922058D01*
X156896512Y-101940000D01*
X154803936Y-101940000D01*
X154787046Y-101923081D01*
X154406777Y-101765180D01*
X153995029Y-101764821D01*
X153614485Y-101922058D01*
X153323081Y-102212954D01*
X153165180Y-102593223D01*
X153164821Y-103004971D01*
X152558962Y-103004971D01*
X152576919Y-102987046D01*
X152734820Y-102606777D01*
X152735179Y-102195029D01*
X152660000Y-102013081D01*
X152660000Y-101408005D01*
X152660001Y-101408000D01*
X152586924Y-101040624D01*
X152541888Y-100973223D01*
X152378823Y-100729177D01*
X152378820Y-100729175D01*
X152220823Y-100571177D01*
X151909376Y-100363076D01*
X151542000Y-100289999D01*
X151541995Y-100290000D01*
X150236964Y-100290000D01*
X150056777Y-100215180D01*
X149645029Y-100214821D01*
X149463081Y-100290000D01*
X144600000Y-100290000D01*
X144449181Y-100320000D01*
X134913936Y-100320000D01*
X134897046Y-100303081D01*
X134516777Y-100145180D01*
X134105029Y-100144821D01*
X133724485Y-100302058D01*
X133433081Y-100592954D01*
X133275180Y-100973223D01*
X133274821Y-101384971D01*
X130673531Y-101384971D01*
X130973461Y-101085564D01*
X131184759Y-100576702D01*
X131185240Y-100025715D01*
X131096109Y-99810000D01*
X141250000Y-99810000D01*
X141540839Y-99752148D01*
X141787401Y-99587401D01*
X143324802Y-98050000D01*
X145067537Y-98050000D01*
X145099673Y-98082192D01*
X145443201Y-98224838D01*
X145815167Y-98225162D01*
X146158943Y-98083117D01*
X146182100Y-98060000D01*
X146665012Y-98060000D01*
X146664838Y-98260167D01*
X146806883Y-98603943D01*
X147069673Y-98867192D01*
X147413201Y-99009838D01*
X147785167Y-99010162D01*
X148128943Y-98868117D01*
X148187162Y-98810000D01*
X151076872Y-98810000D01*
X151065162Y-98838201D01*
X151064838Y-99210167D01*
X151206883Y-99553943D01*
X151469673Y-99817192D01*
X151813201Y-99959838D01*
X152185167Y-99960162D01*
X152528943Y-99818117D01*
X152587162Y-99760000D01*
X163245198Y-99760000D01*
X164762599Y-101277401D01*
X165009161Y-101442148D01*
X165300000Y-101500000D01*
X176897537Y-101500000D01*
X176929673Y-101532192D01*
X177273201Y-101674838D01*
X177645167Y-101675162D01*
X177988943Y-101533117D01*
X178252192Y-101270327D01*
X178394838Y-100926799D01*
X178395162Y-100554833D01*
X178253117Y-100211057D01*
X177990327Y-99947808D01*
X177646799Y-99805162D01*
X177274833Y-99804838D01*
X176931057Y-99946883D01*
X176897882Y-99980000D01*
X176853783Y-99980000D01*
X176977401Y-99897401D01*
X177177401Y-99697401D01*
X177342148Y-99450839D01*
X177400000Y-99160000D01*
X177400000Y-98052463D01*
X177432192Y-98020327D01*
X177574838Y-97676799D01*
X177575162Y-97304833D01*
X177433117Y-96961057D01*
X177170327Y-96697808D01*
X176826799Y-96555162D01*
X176454833Y-96554838D01*
X176111057Y-96696883D01*
X175847808Y-96959673D01*
X175705162Y-97303201D01*
X175704838Y-97675167D01*
X175846883Y-98018943D01*
X175880000Y-98052118D01*
X175880000Y-98600000D01*
X166790290Y-98600000D01*
X166824838Y-98516799D01*
X166825162Y-98144833D01*
X166683117Y-97801057D01*
X166420327Y-97537808D01*
X166076799Y-97395162D01*
X165704833Y-97394838D01*
X165361057Y-97536883D01*
X165341354Y-97556552D01*
X164583471Y-96798669D01*
X164654838Y-96626799D01*
X164655162Y-96254833D01*
X164513117Y-95911057D01*
X164250327Y-95647808D01*
X163906799Y-95505162D01*
X163534833Y-95504838D01*
X163191057Y-95646883D01*
X163127830Y-95710000D01*
X157839823Y-95710000D01*
X157859838Y-95661799D01*
X157859883Y-95610009D01*
X158035167Y-95610162D01*
X158378943Y-95468117D01*
X158642192Y-95205327D01*
X158784838Y-94861799D01*
X158785162Y-94489833D01*
X158643117Y-94146057D01*
X158380327Y-93882808D01*
X158036799Y-93740162D01*
X157664833Y-93739838D01*
X157321057Y-93881883D01*
X157262838Y-93940000D01*
X151925000Y-93940000D01*
X151634161Y-93997852D01*
X151387599Y-94162599D01*
X151085198Y-94465000D01*
X148714802Y-94465000D01*
X148412401Y-94162599D01*
X148165839Y-93997852D01*
X147875000Y-93940000D01*
X147783509Y-93940000D01*
X147784838Y-93936799D01*
X147785162Y-93564833D01*
X147643117Y-93221057D01*
X147610000Y-93187882D01*
X147610000Y-92434966D01*
X147835167Y-92435162D01*
X148178943Y-92293117D01*
X148442192Y-92030327D01*
X148584838Y-91686799D01*
X148585162Y-91314833D01*
X148443117Y-90971057D01*
X148410000Y-90937882D01*
X148410000Y-82860000D01*
X148352148Y-82569161D01*
X148352148Y-82569160D01*
X148187401Y-82322599D01*
X148085000Y-82220198D01*
X148085000Y-81737419D01*
X148142192Y-81680327D01*
X148284838Y-81336799D01*
X148285162Y-80964833D01*
X148143117Y-80621057D01*
X147880327Y-80357808D01*
X147536799Y-80215162D01*
X147164833Y-80214838D01*
X146821057Y-80356883D01*
X146557808Y-80619673D01*
X146415162Y-80963201D01*
X146414986Y-81164925D01*
X146314833Y-81164838D01*
X145971057Y-81306883D01*
X145707808Y-81569673D01*
X145614617Y-81794101D01*
X145491463Y-81496046D01*
X145458346Y-81462871D01*
X145458346Y-77405845D01*
X145469673Y-77417192D01*
X145813201Y-77559838D01*
X146185167Y-77560162D01*
X146289897Y-77516888D01*
X146289838Y-77585167D01*
X146431883Y-77928943D01*
X146694673Y-78192192D01*
X147038201Y-78334838D01*
X147410167Y-78335162D01*
X147753943Y-78193117D01*
X148017192Y-77930327D01*
X148159838Y-77586799D01*
X148160162Y-77214833D01*
X148018117Y-76871057D01*
X147990000Y-76842891D01*
X147990000Y-74243234D01*
X148198325Y-74329738D01*
X148799040Y-74330262D01*
X149010000Y-74243095D01*
X149010000Y-77567572D01*
X148957808Y-77619673D01*
X148815162Y-77963201D01*
X148814838Y-78335167D01*
X148956883Y-78678943D01*
X149219673Y-78942192D01*
X149563201Y-79084838D01*
X149935167Y-79085162D01*
X150278943Y-78943117D01*
X150280000Y-78942062D01*
X150280000Y-84193251D01*
X150031777Y-84090180D01*
X149620029Y-84089821D01*
X149239485Y-84247058D01*
X148948081Y-84537954D01*
X148790180Y-84918223D01*
X148789821Y-85329971D01*
X148947058Y-85710515D01*
X148965000Y-85728488D01*
X148965000Y-86896064D01*
X148948081Y-86912954D01*
X148790180Y-87293223D01*
X148789821Y-87704971D01*
X148865000Y-87886919D01*
X148865000Y-90238036D01*
X148790180Y-90418223D01*
X148789821Y-90829971D01*
X148865000Y-91011919D01*
X148865000Y-92927829D01*
X148765180Y-93168223D01*
X148764821Y-93579971D01*
X148922058Y-93960515D01*
X149212954Y-94251919D01*
X149593223Y-94409820D01*
X150004971Y-94410179D01*
X150385515Y-94252942D01*
X150676919Y-93962046D01*
X150834820Y-93581777D01*
X150835179Y-93170029D01*
X150785000Y-93048586D01*
X150785000Y-91546912D01*
X150840204Y-91569835D01*
X151218138Y-91570165D01*
X151567429Y-91425841D01*
X151834902Y-91158835D01*
X151979835Y-90809796D01*
X151980165Y-90431862D01*
X151835841Y-90082571D01*
X151800000Y-90046667D01*
X151800000Y-88424802D01*
X153915000Y-90539802D01*
X153915000Y-90662494D01*
X153907808Y-90669673D01*
X153765162Y-91013201D01*
X153764838Y-91385167D01*
X153906883Y-91728943D01*
X154169673Y-91992192D01*
X154513201Y-92134838D01*
X154790000Y-92135079D01*
X154790000Y-92162581D01*
X154732808Y-92219673D01*
X154590162Y-92563201D01*
X154589838Y-92935167D01*
X154731883Y-93278943D01*
X154994673Y-93542192D01*
X155338201Y-93684838D01*
X155710167Y-93685162D01*
X156053943Y-93543117D01*
X156317192Y-93280327D01*
X156362616Y-93170934D01*
X156484161Y-93252148D01*
X156775000Y-93310000D01*
X157237537Y-93310000D01*
X157269673Y-93342192D01*
X157613201Y-93484838D01*
X157985167Y-93485162D01*
X158328943Y-93343117D01*
X158592192Y-93080327D01*
X158734838Y-92736799D01*
X158735162Y-92364833D01*
X158593117Y-92021057D01*
X158559769Y-91987650D01*
X158617192Y-91930327D01*
X158759838Y-91586799D01*
X158760162Y-91214833D01*
X158618117Y-90871057D01*
X158559769Y-90812607D01*
X158642192Y-90730327D01*
X158784838Y-90386799D01*
X158785162Y-90014833D01*
X158643117Y-89671057D01*
X158610000Y-89637882D01*
X158610000Y-89525000D01*
X158552148Y-89234161D01*
X158387401Y-88987599D01*
X154985000Y-85585198D01*
X154985000Y-82335167D01*
X157214838Y-82335167D01*
X157356883Y-82678943D01*
X157390000Y-82712118D01*
X157390000Y-84450000D01*
X157447852Y-84740839D01*
X157612599Y-84987401D01*
X158387599Y-85762401D01*
X158634161Y-85927148D01*
X158925000Y-85985000D01*
X159337537Y-85985000D01*
X159369673Y-86017192D01*
X159713201Y-86159838D01*
X160085167Y-86160162D01*
X160428943Y-86018117D01*
X160692192Y-85755327D01*
X160834838Y-85411799D01*
X160835144Y-85060000D01*
X164445198Y-85060000D01*
X164902599Y-85517401D01*
X165149160Y-85682148D01*
X165440000Y-85740000D01*
X173100000Y-85740000D01*
X173390839Y-85682148D01*
X173637401Y-85517401D01*
X174037401Y-85117401D01*
X174202148Y-84870840D01*
X174224260Y-84759673D01*
X174260000Y-84580000D01*
X174260000Y-82770000D01*
X174895147Y-82770000D01*
X174894838Y-83125167D01*
X175036883Y-83468943D01*
X175070000Y-83502118D01*
X175070000Y-86390000D01*
X168123761Y-86390000D01*
X168007046Y-86273081D01*
X167626777Y-86115180D01*
X167215029Y-86114821D01*
X166834485Y-86272058D01*
X166543081Y-86562954D01*
X166385180Y-86943223D01*
X166384821Y-87354971D01*
X166542058Y-87735515D01*
X166560000Y-87753488D01*
X166560000Y-88833776D01*
X166529915Y-88863861D01*
X166523888Y-88867888D01*
X166337464Y-89146892D01*
X166272000Y-89476000D01*
X166272000Y-90887556D01*
X166072330Y-91020971D01*
X165747474Y-91507152D01*
X165633400Y-92080641D01*
X165633400Y-92139359D01*
X165747474Y-92712848D01*
X166059904Y-93180432D01*
X166020635Y-93188243D01*
X165810591Y-93328591D01*
X165670243Y-93538635D01*
X165620960Y-93786400D01*
X165620960Y-95513600D01*
X165670243Y-95761365D01*
X165810591Y-95971409D01*
X166020635Y-96111757D01*
X166268400Y-96161040D01*
X167995600Y-96161040D01*
X168243365Y-96111757D01*
X168453409Y-95971409D01*
X168593757Y-95761365D01*
X168601441Y-95722733D01*
X168612330Y-95739029D01*
X169098511Y-96063885D01*
X169672000Y-96177959D01*
X170245489Y-96063885D01*
X170731670Y-95739029D01*
X170942000Y-95424248D01*
X171152330Y-95739029D01*
X171638511Y-96063885D01*
X172212000Y-96177959D01*
X172785489Y-96063885D01*
X173271670Y-95739029D01*
X173491520Y-95410000D01*
X177957537Y-95410000D01*
X177989673Y-95442192D01*
X178333201Y-95584838D01*
X178705167Y-95585162D01*
X179048943Y-95443117D01*
X179312192Y-95180327D01*
X179454838Y-94836799D01*
X179455162Y-94464833D01*
X179313117Y-94121057D01*
X179050327Y-93857808D01*
X178706799Y-93715162D01*
X178334833Y-93714838D01*
X177991057Y-93856883D01*
X177957882Y-93890000D01*
X173491520Y-93890000D01*
X173271670Y-93560971D01*
X173000828Y-93380000D01*
X173271670Y-93199029D01*
X173596526Y-92712848D01*
X173710600Y-92139359D01*
X173710600Y-92080641D01*
X173596526Y-91507152D01*
X173572282Y-91470869D01*
X173578943Y-91468117D01*
X173842192Y-91205327D01*
X173984838Y-90861799D01*
X173985162Y-90489833D01*
X173843117Y-90146057D01*
X173580327Y-89882808D01*
X173236799Y-89740162D01*
X172864833Y-89739838D01*
X172521057Y-89881883D01*
X172487882Y-89915000D01*
X168725000Y-89915000D01*
X168434161Y-89972852D01*
X168187599Y-90137599D01*
X167992000Y-90333198D01*
X167992000Y-89834224D01*
X168028112Y-89798112D01*
X168049675Y-89765840D01*
X168214536Y-89519108D01*
X168280000Y-89190000D01*
X168280000Y-87910000D01*
X175400000Y-87910000D01*
X175690839Y-87852148D01*
X175937401Y-87687401D01*
X176367401Y-87257401D01*
X176532148Y-87010839D01*
X176590000Y-86720000D01*
X176590000Y-84660000D01*
X177860000Y-84660000D01*
X177860000Y-88387537D01*
X177827808Y-88419673D01*
X177685162Y-88763201D01*
X177684838Y-89135167D01*
X177826883Y-89478943D01*
X178089673Y-89742192D01*
X178433201Y-89884838D01*
X178805167Y-89885162D01*
X179148943Y-89743117D01*
X179412192Y-89480327D01*
X179554838Y-89136799D01*
X179555162Y-88764833D01*
X179413117Y-88421057D01*
X179380000Y-88387882D01*
X179380000Y-86785167D01*
X180914838Y-86785167D01*
X181056883Y-87128943D01*
X181319673Y-87392192D01*
X181663201Y-87534838D01*
X182035167Y-87535162D01*
X182378943Y-87393117D01*
X182642192Y-87130327D01*
X182784838Y-86786799D01*
X182785162Y-86414833D01*
X182643117Y-86071057D01*
X182620000Y-86047900D01*
X182620000Y-85742463D01*
X182652192Y-85710327D01*
X182794838Y-85366799D01*
X182795162Y-84994833D01*
X182653117Y-84651057D01*
X182390327Y-84387808D01*
X182046799Y-84245162D01*
X181674833Y-84244838D01*
X181331057Y-84386883D01*
X181067808Y-84649673D01*
X180925162Y-84993201D01*
X180924838Y-85365167D01*
X181066883Y-85708943D01*
X181100000Y-85742118D01*
X181100000Y-86027555D01*
X181057808Y-86069673D01*
X180915162Y-86413201D01*
X180914838Y-86785167D01*
X179380000Y-86785167D01*
X179380000Y-84482428D01*
X179432192Y-84430327D01*
X179574838Y-84086799D01*
X179575162Y-83714833D01*
X179519450Y-83580000D01*
X180130000Y-83580000D01*
X180420839Y-83522148D01*
X180667401Y-83357401D01*
X181187401Y-82837401D01*
X181352148Y-82590839D01*
X181410000Y-82300000D01*
X181410000Y-82246971D01*
X185400821Y-82246971D01*
X185558058Y-82627515D01*
X185601000Y-82670532D01*
X185601000Y-87001108D01*
X185559081Y-87042954D01*
X185401180Y-87423223D01*
X185400821Y-87834971D01*
X185558058Y-88215515D01*
X185848954Y-88506919D01*
X186229223Y-88664820D01*
X186640971Y-88665179D01*
X187021515Y-88507942D01*
X187097374Y-88432215D01*
X187827460Y-88432215D01*
X187827460Y-88781585D01*
X187911954Y-89206364D01*
X188152571Y-89566474D01*
X188512681Y-89807091D01*
X188937460Y-89891585D01*
X189362239Y-89807091D01*
X189661847Y-89606900D01*
X190199836Y-89606900D01*
X190286233Y-90041246D01*
X190532270Y-90409466D01*
X190900490Y-90655503D01*
X191334836Y-90741900D01*
X191940084Y-90741900D01*
X192374430Y-90655503D01*
X192742650Y-90409466D01*
X192988687Y-90041246D01*
X193075084Y-89606900D01*
X192988687Y-89172554D01*
X192742650Y-88804334D01*
X192374430Y-88558297D01*
X191940084Y-88471900D01*
X191334836Y-88471900D01*
X190900490Y-88558297D01*
X190532270Y-88804334D01*
X190286233Y-89172554D01*
X190199836Y-89606900D01*
X189661847Y-89606900D01*
X189722349Y-89566474D01*
X189962966Y-89206364D01*
X190047460Y-88781585D01*
X190047460Y-88432215D01*
X189962966Y-88007436D01*
X189722349Y-87647326D01*
X189362239Y-87406709D01*
X188937460Y-87322215D01*
X188512681Y-87406709D01*
X188152571Y-87647326D01*
X187911954Y-88007436D01*
X187827460Y-88432215D01*
X187097374Y-88432215D01*
X187312919Y-88217046D01*
X187470820Y-87836777D01*
X187471179Y-87425029D01*
X187313942Y-87044485D01*
X187271000Y-87001468D01*
X187271000Y-83432215D01*
X187827460Y-83432215D01*
X187827460Y-83781585D01*
X187911954Y-84206364D01*
X188152571Y-84566474D01*
X188512681Y-84807091D01*
X188937460Y-84891585D01*
X189362239Y-84807091D01*
X189722349Y-84566474D01*
X189962966Y-84206364D01*
X190047460Y-83781585D01*
X190047460Y-83432215D01*
X189962966Y-83007436D01*
X189722349Y-82647326D01*
X189661848Y-82606900D01*
X190199836Y-82606900D01*
X190286233Y-83041246D01*
X190532270Y-83409466D01*
X190900490Y-83655503D01*
X191334836Y-83741900D01*
X191940084Y-83741900D01*
X192374430Y-83655503D01*
X192742650Y-83409466D01*
X192988687Y-83041246D01*
X193075084Y-82606900D01*
X192988687Y-82172554D01*
X192742650Y-81804334D01*
X192374430Y-81558297D01*
X191940084Y-81471900D01*
X191334836Y-81471900D01*
X190900490Y-81558297D01*
X190532270Y-81804334D01*
X190286233Y-82172554D01*
X190199836Y-82606900D01*
X189661848Y-82606900D01*
X189362239Y-82406709D01*
X188937460Y-82322215D01*
X188512681Y-82406709D01*
X188152571Y-82647326D01*
X187911954Y-83007436D01*
X187827460Y-83432215D01*
X187271000Y-83432215D01*
X187271000Y-82670892D01*
X187312919Y-82629046D01*
X187470820Y-82248777D01*
X187471179Y-81837029D01*
X187313942Y-81456485D01*
X187023046Y-81165081D01*
X186642777Y-81007180D01*
X186231029Y-81006821D01*
X185850485Y-81164058D01*
X185559081Y-81454954D01*
X185401180Y-81835223D01*
X185400821Y-82246971D01*
X181410000Y-82246971D01*
X181410000Y-80630000D01*
X184600000Y-80630000D01*
X184890839Y-80572148D01*
X185137401Y-80407401D01*
X185417401Y-80127401D01*
X185582148Y-79880839D01*
X185586802Y-79857440D01*
X185630000Y-79857440D01*
X185877765Y-79808157D01*
X186087809Y-79667809D01*
X186138341Y-79592183D01*
X186182191Y-79657809D01*
X186392235Y-79798157D01*
X186640000Y-79847440D01*
X188140000Y-79847440D01*
X188387765Y-79798157D01*
X188597809Y-79657809D01*
X188738157Y-79447765D01*
X188787440Y-79200000D01*
X188787440Y-77700000D01*
X188738157Y-77452235D01*
X188597809Y-77242191D01*
X188387765Y-77101843D01*
X188140000Y-77052560D01*
X186640000Y-77052560D01*
X186392235Y-77101843D01*
X186182191Y-77242191D01*
X186131659Y-77317817D01*
X186087809Y-77252191D01*
X185877765Y-77111843D01*
X185630000Y-77062560D01*
X184130000Y-77062560D01*
X183882235Y-77111843D01*
X183760000Y-77193518D01*
X183637765Y-77111843D01*
X183390000Y-77062560D01*
X181890000Y-77062560D01*
X181642235Y-77111843D01*
X181432191Y-77252191D01*
X181291843Y-77462235D01*
X181244549Y-77700000D01*
X180360000Y-77700000D01*
X180069161Y-77757852D01*
X179822599Y-77922599D01*
X179576422Y-78168776D01*
X178958823Y-77551177D01*
X178647376Y-77343076D01*
X178280000Y-77269999D01*
X178279995Y-77270000D01*
X170869212Y-77270000D01*
X170616777Y-77165180D01*
X170205029Y-77164821D01*
X169824485Y-77322058D01*
X169533081Y-77612954D01*
X169375180Y-77993223D01*
X169374821Y-78404971D01*
X169532058Y-78785515D01*
X169822954Y-79076919D01*
X170203223Y-79234820D01*
X170614971Y-79235179D01*
X170724313Y-79190000D01*
X177882354Y-79190000D01*
X178060000Y-79367645D01*
X178060000Y-81053036D01*
X177985180Y-81233223D01*
X177984947Y-81500000D01*
X177914802Y-81500000D01*
X176757401Y-80342599D01*
X176510839Y-80177852D01*
X176220000Y-80120000D01*
X170152463Y-80120000D01*
X170120327Y-80087808D01*
X169776799Y-79945162D01*
X169404833Y-79944838D01*
X169061057Y-80086883D01*
X168797808Y-80349673D01*
X168655162Y-80693201D01*
X168654838Y-81065167D01*
X168796883Y-81408943D01*
X169059673Y-81672192D01*
X169403201Y-81814838D01*
X169775167Y-81815162D01*
X170118943Y-81673117D01*
X170152118Y-81640000D01*
X172641234Y-81640000D01*
X172565162Y-81823201D01*
X172564838Y-82195167D01*
X172706883Y-82538943D01*
X172740000Y-82572118D01*
X172740000Y-84220000D01*
X165754802Y-84220000D01*
X165297401Y-83762599D01*
X165050839Y-83597852D01*
X164760000Y-83540000D01*
X160452463Y-83540000D01*
X160420327Y-83507808D01*
X160076799Y-83365162D01*
X159704833Y-83364838D01*
X159361057Y-83506883D01*
X159097808Y-83769673D01*
X158955162Y-84113201D01*
X158955104Y-84180302D01*
X158910000Y-84135198D01*
X158910000Y-82712463D01*
X158942192Y-82680327D01*
X159084838Y-82336799D01*
X159085162Y-81964833D01*
X158943117Y-81621057D01*
X158680327Y-81357808D01*
X158336799Y-81215162D01*
X157964833Y-81214838D01*
X157621057Y-81356883D01*
X157357808Y-81619673D01*
X157215162Y-81963201D01*
X157214838Y-82335167D01*
X154985000Y-82335167D01*
X154985000Y-80484944D01*
X155254971Y-80485179D01*
X155436919Y-80410000D01*
X158852354Y-80410000D01*
X159893175Y-81450820D01*
X159893177Y-81450823D01*
X160147952Y-81621057D01*
X160204624Y-81658924D01*
X160572000Y-81732000D01*
X165590000Y-81732000D01*
X165590000Y-82546064D01*
X165573081Y-82562954D01*
X165415180Y-82943223D01*
X165414821Y-83354971D01*
X165572058Y-83735515D01*
X165862954Y-84026919D01*
X166243223Y-84184820D01*
X166654971Y-84185179D01*
X167035515Y-84027942D01*
X167326919Y-83737046D01*
X167484820Y-83356777D01*
X167485179Y-82945029D01*
X167327942Y-82564485D01*
X167310000Y-82546512D01*
X167310000Y-81696594D01*
X167499376Y-81658924D01*
X167810823Y-81450823D01*
X168158820Y-81102825D01*
X168158823Y-81102823D01*
X168366924Y-80791376D01*
X168431232Y-80468080D01*
X168514820Y-80266777D01*
X168515179Y-79855029D01*
X168357942Y-79474485D01*
X168067046Y-79183081D01*
X167686777Y-79025180D01*
X167275029Y-79024821D01*
X166894485Y-79182058D01*
X166603081Y-79472954D01*
X166462297Y-79812000D01*
X160969645Y-79812000D01*
X159928823Y-78771177D01*
X159808786Y-78690971D01*
X160254821Y-78690971D01*
X160412058Y-79071515D01*
X160702954Y-79362919D01*
X161083223Y-79520820D01*
X161494971Y-79521179D01*
X161875515Y-79363942D01*
X161893488Y-79346000D01*
X165258064Y-79346000D01*
X165274954Y-79362919D01*
X165655223Y-79520820D01*
X166066971Y-79521179D01*
X166447515Y-79363942D01*
X166738919Y-79073046D01*
X166896820Y-78692777D01*
X166897179Y-78281029D01*
X166739942Y-77900485D01*
X166449046Y-77609081D01*
X166068777Y-77451180D01*
X165657029Y-77450821D01*
X165276485Y-77608058D01*
X165258512Y-77626000D01*
X161893936Y-77626000D01*
X161877046Y-77609081D01*
X161496777Y-77451180D01*
X161085029Y-77450821D01*
X160704485Y-77608058D01*
X160413081Y-77898954D01*
X160255180Y-78279223D01*
X160254821Y-78690971D01*
X159808786Y-78690971D01*
X159617376Y-78563076D01*
X159250000Y-78489999D01*
X159249995Y-78490000D01*
X155436964Y-78490000D01*
X155256777Y-78415180D01*
X154985000Y-78414943D01*
X154985000Y-76914802D01*
X155389802Y-76510000D01*
X160630000Y-76510000D01*
X160892817Y-76457722D01*
X161004883Y-76728943D01*
X161267673Y-76992192D01*
X161611201Y-77134838D01*
X161983167Y-77135162D01*
X162306371Y-77001617D01*
X162627201Y-77134838D01*
X162999167Y-77135162D01*
X163342943Y-76993117D01*
X163376118Y-76960000D01*
X164275000Y-76960000D01*
X164565839Y-76902148D01*
X164812401Y-76737401D01*
X165487401Y-76062401D01*
X165652148Y-75815839D01*
X165710000Y-75525000D01*
X165710000Y-74218320D01*
X165978325Y-74329738D01*
X166579040Y-74330262D01*
X167134229Y-74100862D01*
X167559370Y-73676463D01*
X167789738Y-73121675D01*
X167790262Y-72520960D01*
X167560862Y-71965771D01*
X167543182Y-71948060D01*
X169139652Y-71948060D01*
X169445012Y-72687086D01*
X170009940Y-73253001D01*
X170748432Y-73559650D01*
X171548060Y-73560348D01*
X172287086Y-73254988D01*
X172853001Y-72690060D01*
X173159650Y-71951568D01*
X173160348Y-71151940D01*
X172854988Y-70412914D01*
X172290060Y-69846999D01*
X171551568Y-69540350D01*
X170751940Y-69539652D01*
X170012914Y-69845012D01*
X169446999Y-70409940D01*
X169140350Y-71148432D01*
X169139652Y-71948060D01*
X167543182Y-71948060D01*
X167145464Y-71549647D01*
X167559370Y-71136463D01*
X167789738Y-70581675D01*
X167790262Y-69980960D01*
X167560862Y-69425771D01*
X167136463Y-69000630D01*
X166581675Y-68770262D01*
X165980960Y-68769738D01*
X165425771Y-68999138D01*
X165009647Y-69414536D01*
X164596463Y-69000630D01*
X164041675Y-68770262D01*
X163440960Y-68769738D01*
X162885771Y-68999138D01*
X162469647Y-69414536D01*
X162056463Y-69000630D01*
X161501675Y-68770262D01*
X160900960Y-68769738D01*
X160345771Y-68999138D01*
X159929647Y-69414536D01*
X159516463Y-69000630D01*
X158961675Y-68770262D01*
X158360960Y-68769738D01*
X157805771Y-68999138D01*
X157389647Y-69414536D01*
X156976463Y-69000630D01*
X156421675Y-68770262D01*
X155820960Y-68769738D01*
X155265771Y-68999138D01*
X154849647Y-69414536D01*
X154436463Y-69000630D01*
X153881675Y-68770262D01*
X153280960Y-68769738D01*
X152725771Y-68999138D01*
X152309647Y-69414536D01*
X151896463Y-69000630D01*
X151341675Y-68770262D01*
X150740960Y-68769738D01*
X150185771Y-68999138D01*
X149769647Y-69414536D01*
X149356463Y-69000630D01*
X148801675Y-68770262D01*
X148200960Y-68769738D01*
X147645771Y-68999138D01*
X147229647Y-69414536D01*
X146816463Y-69000630D01*
X146261675Y-68770262D01*
X145660960Y-68769738D01*
X145105771Y-68999138D01*
X144689647Y-69414536D01*
X144276463Y-69000630D01*
X143721675Y-68770262D01*
X143120960Y-68769738D01*
X142565771Y-68999138D01*
X142149647Y-69414536D01*
X141736463Y-69000630D01*
X141181675Y-68770262D01*
X140580960Y-68769738D01*
X140025771Y-68999138D01*
X139609647Y-69414536D01*
X139196463Y-69000630D01*
X138641675Y-68770262D01*
X138040960Y-68769738D01*
X137485771Y-68999138D01*
X137069647Y-69414536D01*
X136656463Y-69000630D01*
X136101675Y-68770262D01*
X135500960Y-68769738D01*
X134945771Y-68999138D01*
X134529647Y-69414536D01*
X134116463Y-69000630D01*
X133561675Y-68770262D01*
X132960960Y-68769738D01*
X132405771Y-68999138D01*
X131989647Y-69414536D01*
X131576463Y-69000630D01*
X131021675Y-68770262D01*
X130420960Y-68769738D01*
X129865771Y-68999138D01*
X129449647Y-69414536D01*
X129036463Y-69000630D01*
X128481675Y-68770262D01*
X127880960Y-68769738D01*
X127325771Y-68999138D01*
X126909647Y-69414536D01*
X126496463Y-69000630D01*
X125941675Y-68770262D01*
X125340960Y-68769738D01*
X124785771Y-68999138D01*
X124369647Y-69414536D01*
X123956463Y-69000630D01*
X123401675Y-68770262D01*
X122800960Y-68769738D01*
X122245771Y-68999138D01*
X121829647Y-69414536D01*
X121416463Y-69000630D01*
X120861675Y-68770262D01*
X120260960Y-68769738D01*
X119705771Y-68999138D01*
X119289647Y-69414536D01*
X118876463Y-69000630D01*
X118321675Y-68770262D01*
X117720960Y-68769738D01*
X117165771Y-68999138D01*
X116740630Y-69423537D01*
X116510262Y-69978325D01*
X116509738Y-70579040D01*
X116739138Y-71134229D01*
X116942411Y-71337857D01*
X116897235Y-71346843D01*
X116687191Y-71487191D01*
X116546843Y-71697235D01*
X116497560Y-71945000D01*
X115159655Y-71945000D01*
X115160348Y-71151940D01*
X114854988Y-70412914D01*
X114290060Y-69846999D01*
X113551568Y-69540350D01*
X112751940Y-69539652D01*
X112012914Y-69845012D01*
X111446999Y-70409940D01*
X111140350Y-71148432D01*
X111139652Y-71948060D01*
X109675232Y-71948060D01*
X109675438Y-71487034D01*
X109935022Y-70184920D01*
X110666012Y-69091835D01*
X111759636Y-68361652D01*
X113061939Y-68103031D01*
X191191603Y-68125970D01*
X191191603Y-68125970D01*
G37*
X191191603Y-68125970D02*
X192492945Y-68385020D01*
X193585717Y-69114949D01*
X194316296Y-70207283D01*
X194576121Y-71508470D01*
X194619874Y-120687000D01*
X194454032Y-121739541D01*
X193975474Y-122680213D01*
X193229523Y-123426827D01*
X192289281Y-123906220D01*
X191236882Y-124073000D01*
X113036558Y-124073000D01*
X111984445Y-123906314D01*
X111044405Y-123427182D01*
X110298495Y-122680940D01*
X109819778Y-121740682D01*
X109694565Y-120948060D01*
X111139652Y-120948060D01*
X111445012Y-121687086D01*
X112009940Y-122253001D01*
X112748432Y-122559650D01*
X113548060Y-122560348D01*
X114287086Y-122254988D01*
X114853001Y-121690060D01*
X115159650Y-120951568D01*
X115159653Y-120948060D01*
X169139652Y-120948060D01*
X169445012Y-121687086D01*
X170009940Y-122253001D01*
X170748432Y-122559650D01*
X171548060Y-122560348D01*
X172287086Y-122254988D01*
X172853001Y-121690060D01*
X173159650Y-120951568D01*
X173160348Y-120151940D01*
X172854988Y-119412914D01*
X172290060Y-118846999D01*
X171551568Y-118540350D01*
X170751940Y-118539652D01*
X170012914Y-118845012D01*
X169446999Y-119409940D01*
X169140350Y-120148432D01*
X169139652Y-120948060D01*
X115159653Y-120948060D01*
X115160348Y-120151940D01*
X114854988Y-119412914D01*
X114290060Y-118846999D01*
X113551568Y-118540350D01*
X112751940Y-118539652D01*
X112012914Y-118845012D01*
X111446999Y-119409940D01*
X111140350Y-120148432D01*
X111139652Y-120948060D01*
X109694565Y-120948060D01*
X109653561Y-120688505D01*
X109655045Y-117350000D01*
X131590000Y-117350000D01*
X131614891Y-117475133D01*
X131614821Y-117554971D01*
X131645578Y-117629410D01*
X131670688Y-117755644D01*
X131741568Y-117861724D01*
X131772058Y-117935515D01*
X131828963Y-117992519D01*
X131900467Y-118099533D01*
X132006546Y-118170413D01*
X132062954Y-118226919D01*
X132137342Y-118257807D01*
X132244356Y-118329312D01*
X132369487Y-118354202D01*
X132443223Y-118384820D01*
X132523765Y-118384890D01*
X132650000Y-118410000D01*
X153000000Y-118410000D01*
X153125133Y-118385109D01*
X153204971Y-118385179D01*
X153279410Y-118354422D01*
X153405644Y-118329312D01*
X153511724Y-118258432D01*
X153585515Y-118227942D01*
X153642519Y-118171037D01*
X153749533Y-118099533D01*
X153820413Y-117993454D01*
X153876919Y-117937046D01*
X153907807Y-117862658D01*
X153979312Y-117755644D01*
X154004202Y-117630513D01*
X154034820Y-117556777D01*
X154034890Y-117476235D01*
X154060000Y-117350000D01*
X154035109Y-117224867D01*
X154035179Y-117145029D01*
X154004422Y-117070590D01*
X153979312Y-116944356D01*
X153908432Y-116838276D01*
X153877942Y-116764485D01*
X153821037Y-116707481D01*
X153749533Y-116600467D01*
X153643454Y-116529587D01*
X153587046Y-116473081D01*
X153512658Y-116442193D01*
X153405644Y-116370688D01*
X153280513Y-116345798D01*
X153206777Y-116315180D01*
X153126235Y-116315110D01*
X153000000Y-116290000D01*
X132650000Y-116290000D01*
X132524867Y-116314891D01*
X132445029Y-116314821D01*
X132370590Y-116345578D01*
X132244356Y-116370688D01*
X132138276Y-116441568D01*
X132064485Y-116472058D01*
X132007481Y-116528963D01*
X131900467Y-116600467D01*
X131829587Y-116706546D01*
X131773081Y-116762954D01*
X131742193Y-116837342D01*
X131670688Y-116944356D01*
X131645798Y-117069487D01*
X131615180Y-117143223D01*
X131615110Y-117223765D01*
X131590000Y-117350000D01*
X109655045Y-117350000D01*
X109663066Y-99310167D01*
X118789838Y-99310167D01*
X118931883Y-99653943D01*
X118980000Y-99702144D01*
X118980000Y-105897485D01*
X118977808Y-105899673D01*
X118835162Y-106243201D01*
X118834838Y-106615167D01*
X118976883Y-106958943D01*
X119239673Y-107222192D01*
X119583201Y-107364838D01*
X119955167Y-107365162D01*
X120298943Y-107223117D01*
X120562192Y-106960327D01*
X120704838Y-106616799D01*
X120705162Y-106244833D01*
X120563117Y-105901057D01*
X120500000Y-105837830D01*
X120500000Y-104462505D01*
X120634160Y-104552148D01*
X120925000Y-104610000D01*
X122539158Y-104610000D01*
X122465162Y-104788201D01*
X122464838Y-105160167D01*
X122606883Y-105503943D01*
X122869673Y-105767192D01*
X123213201Y-105909838D01*
X123585167Y-105910162D01*
X123928943Y-105768117D01*
X124192192Y-105505327D01*
X124334838Y-105161799D01*
X124335162Y-104789833D01*
X124193117Y-104446057D01*
X124160000Y-104412882D01*
X124160000Y-104200000D01*
X124102148Y-103909161D01*
X123937401Y-103662599D01*
X123587401Y-103312599D01*
X123340839Y-103147852D01*
X123050000Y-103090000D01*
X121370000Y-103090000D01*
X121370000Y-100477480D01*
X121392192Y-100455327D01*
X121534838Y-100111799D01*
X121535162Y-99739833D01*
X121393117Y-99396057D01*
X121130327Y-99132808D01*
X120786799Y-98990162D01*
X120660118Y-98990052D01*
X120660162Y-98939833D01*
X120518117Y-98596057D01*
X120255327Y-98332808D01*
X119911799Y-98190162D01*
X119539833Y-98189838D01*
X119196057Y-98331883D01*
X118932808Y-98594673D01*
X118790162Y-98938201D01*
X118789838Y-99310167D01*
X109663066Y-99310167D01*
X109666594Y-91375167D01*
X110534838Y-91375167D01*
X110676883Y-91718943D01*
X110710000Y-91752118D01*
X110710000Y-94990000D01*
X110767852Y-95280839D01*
X110932599Y-95527401D01*
X111242599Y-95837401D01*
X111489160Y-96002148D01*
X111780000Y-96060000D01*
X120098477Y-96060000D01*
X120423201Y-96194838D01*
X120795167Y-96195162D01*
X121138943Y-96053117D01*
X121402192Y-95790327D01*
X121544838Y-95446799D01*
X121545162Y-95074833D01*
X121403117Y-94731057D01*
X121140327Y-94467808D01*
X120796799Y-94325162D01*
X120424833Y-94324838D01*
X120081057Y-94466883D01*
X120007812Y-94540000D01*
X118504196Y-94540000D01*
X118540000Y-94360000D01*
X118540000Y-90390000D01*
X144170000Y-90390000D01*
X144460839Y-90332148D01*
X144707401Y-90167401D01*
X145017401Y-89857401D01*
X145182148Y-89610840D01*
X145240000Y-89320000D01*
X145240000Y-88222463D01*
X145272192Y-88190327D01*
X145414838Y-87846799D01*
X145415162Y-87474833D01*
X145273117Y-87131057D01*
X145010327Y-86867808D01*
X144666799Y-86725162D01*
X144294833Y-86724838D01*
X143951057Y-86866883D01*
X143687808Y-87129673D01*
X143545162Y-87473201D01*
X143544838Y-87845167D01*
X143686883Y-88188943D01*
X143720000Y-88222118D01*
X143720000Y-88870000D01*
X118499528Y-88870000D01*
X118554838Y-88736799D01*
X118555162Y-88364833D01*
X118413117Y-88021057D01*
X118150327Y-87757808D01*
X117854977Y-87635167D01*
X138514838Y-87635167D01*
X138656883Y-87978943D01*
X138919673Y-88242192D01*
X139263201Y-88384838D01*
X139635167Y-88385162D01*
X139978943Y-88243117D01*
X140012118Y-88210000D01*
X141677537Y-88210000D01*
X141709673Y-88242192D01*
X142053201Y-88384838D01*
X142425167Y-88385162D01*
X142768943Y-88243117D01*
X143032192Y-87980327D01*
X143174838Y-87636799D01*
X143175162Y-87264833D01*
X143033117Y-86921057D01*
X142770327Y-86657808D01*
X142426799Y-86515162D01*
X142054833Y-86514838D01*
X141711057Y-86656883D01*
X141677882Y-86690000D01*
X140012463Y-86690000D01*
X139980327Y-86657808D01*
X139636799Y-86515162D01*
X139264833Y-86514838D01*
X138921057Y-86656883D01*
X138657808Y-86919673D01*
X138515162Y-87263201D01*
X138514838Y-87635167D01*
X117854977Y-87635167D01*
X117806799Y-87615162D01*
X117434833Y-87614838D01*
X117091057Y-87756883D01*
X116827808Y-88019673D01*
X116685162Y-88363201D01*
X116684838Y-88735167D01*
X116762375Y-88922823D01*
X116402599Y-89282599D01*
X116237852Y-89529161D01*
X116180000Y-89820000D01*
X116180000Y-93067537D01*
X116147808Y-93099673D01*
X116005162Y-93443201D01*
X116004838Y-93815167D01*
X116077077Y-93990000D01*
X113432853Y-93990000D01*
X113315117Y-93705057D01*
X113052327Y-93441808D01*
X112708799Y-93299162D01*
X112336833Y-93298838D01*
X112230000Y-93342980D01*
X112230000Y-91752463D01*
X112262192Y-91720327D01*
X112324801Y-91569548D01*
X112352058Y-91635515D01*
X112642954Y-91926919D01*
X113023223Y-92084820D01*
X113434971Y-92085179D01*
X113815515Y-91927942D01*
X114106919Y-91637046D01*
X114264820Y-91256777D01*
X114265179Y-90845029D01*
X114200000Y-90687283D01*
X114200000Y-85455167D01*
X124274838Y-85455167D01*
X124416883Y-85798943D01*
X124679673Y-86062192D01*
X125023201Y-86204838D01*
X125395167Y-86205162D01*
X125738943Y-86063117D01*
X125752083Y-86050000D01*
X141637537Y-86050000D01*
X141669673Y-86082192D01*
X142013201Y-86224838D01*
X142385167Y-86225162D01*
X142728943Y-86083117D01*
X142992192Y-85820327D01*
X143134838Y-85476799D01*
X143135162Y-85104833D01*
X142993117Y-84761057D01*
X142730327Y-84497808D01*
X142386799Y-84355162D01*
X142014833Y-84354838D01*
X141671057Y-84496883D01*
X141637882Y-84530000D01*
X125792428Y-84530000D01*
X125740327Y-84477808D01*
X125396799Y-84335162D01*
X125024833Y-84334838D01*
X124681057Y-84476883D01*
X124417808Y-84739673D01*
X124275162Y-85083201D01*
X124274838Y-85455167D01*
X114200000Y-85455167D01*
X114200000Y-82304971D01*
X124864821Y-82304971D01*
X125022058Y-82685515D01*
X125312954Y-82976919D01*
X125693223Y-83134820D01*
X126104971Y-83135179D01*
X126485515Y-82977942D01*
X126503488Y-82960000D01*
X130846064Y-82960000D01*
X130862954Y-82976919D01*
X131243223Y-83134820D01*
X131654971Y-83135179D01*
X132035515Y-82977942D01*
X132053488Y-82960000D01*
X137771064Y-82960000D01*
X137787954Y-82976919D01*
X138168223Y-83134820D01*
X138579971Y-83135179D01*
X138960515Y-82977942D01*
X139251919Y-82687046D01*
X139409820Y-82306777D01*
X139410179Y-81895029D01*
X139252942Y-81514485D01*
X138962046Y-81223081D01*
X138581777Y-81065180D01*
X138170029Y-81064821D01*
X137789485Y-81222058D01*
X137771512Y-81240000D01*
X132053936Y-81240000D01*
X132037046Y-81223081D01*
X131656777Y-81065180D01*
X131245029Y-81064821D01*
X130864485Y-81222058D01*
X130846512Y-81240000D01*
X126503936Y-81240000D01*
X126487046Y-81223081D01*
X126106777Y-81065180D01*
X125695029Y-81064821D01*
X125314485Y-81222058D01*
X125023081Y-81512954D01*
X124865180Y-81893223D01*
X124864821Y-82304971D01*
X114200000Y-82304971D01*
X114200000Y-79450000D01*
X141138953Y-79450000D01*
X141343223Y-79534820D01*
X141754971Y-79535179D01*
X142135515Y-79377942D01*
X142426919Y-79087046D01*
X142584820Y-78706777D01*
X142585179Y-78295029D01*
X142427942Y-77914485D01*
X142137046Y-77623081D01*
X141756777Y-77465180D01*
X141345029Y-77464821D01*
X141187283Y-77530000D01*
X113600005Y-77530000D01*
X113600000Y-77529999D01*
X113232624Y-77603076D01*
X112921177Y-77811177D01*
X112921175Y-77811180D01*
X112561177Y-78171177D01*
X112353076Y-78482624D01*
X112279999Y-78850000D01*
X112280000Y-78850005D01*
X112280000Y-90638953D01*
X112266960Y-90670357D01*
X112263117Y-90661057D01*
X112000327Y-90397808D01*
X111656799Y-90255162D01*
X111284833Y-90254838D01*
X110941057Y-90396883D01*
X110677808Y-90659673D01*
X110535162Y-91003201D01*
X110534838Y-91375167D01*
X109666594Y-91375167D01*
X109675232Y-71948060D01*
X111139652Y-71948060D01*
X111445012Y-72687086D01*
X112009940Y-73253001D01*
X112748432Y-73559650D01*
X113548060Y-73560348D01*
X114287086Y-73254988D01*
X114853001Y-72690060D01*
X115159650Y-71951568D01*
X115159655Y-71945000D01*
X116497560Y-71945000D01*
X116497560Y-73695000D01*
X116546843Y-73942765D01*
X116687191Y-74152809D01*
X116897235Y-74293157D01*
X117145000Y-74342440D01*
X118895000Y-74342440D01*
X119142765Y-74293157D01*
X119352809Y-74152809D01*
X119493157Y-73942765D01*
X119502137Y-73897618D01*
X119703537Y-74099370D01*
X120258325Y-74329738D01*
X120859040Y-74330262D01*
X121414229Y-74100862D01*
X121830353Y-73685464D01*
X122243537Y-74099370D01*
X122798325Y-74329738D01*
X123399040Y-74330262D01*
X123954229Y-74100862D01*
X124370353Y-73685464D01*
X124783537Y-74099370D01*
X125338325Y-74329738D01*
X125939040Y-74330262D01*
X126115000Y-74257557D01*
X126115000Y-75625000D01*
X126172852Y-75915839D01*
X126337599Y-76162401D01*
X126737599Y-76562401D01*
X126984160Y-76727148D01*
X127032414Y-76736746D01*
X127275000Y-76785000D01*
X133587668Y-76785000D01*
X133694673Y-76892192D01*
X134038201Y-77034838D01*
X134410167Y-77035162D01*
X134753943Y-76893117D01*
X135017192Y-76630327D01*
X135159838Y-76286799D01*
X135160162Y-75914833D01*
X135018117Y-75571057D01*
X134984790Y-75537672D01*
X135017192Y-75505327D01*
X135159838Y-75161799D01*
X135160162Y-74789833D01*
X135018117Y-74446057D01*
X134755327Y-74182808D01*
X134411799Y-74040162D01*
X134175242Y-74039956D01*
X134530353Y-73685464D01*
X134943537Y-74099370D01*
X135498325Y-74329738D01*
X136099040Y-74330262D01*
X136654229Y-74100862D01*
X136873413Y-73882060D01*
X137457545Y-73882060D01*
X137540884Y-74135953D01*
X138105306Y-74341590D01*
X138705458Y-74315579D01*
X139139116Y-74135953D01*
X139222455Y-73882060D01*
X138340000Y-72999605D01*
X137457545Y-73882060D01*
X136873413Y-73882060D01*
X137079370Y-73676463D01*
X137093690Y-73641976D01*
X137277940Y-73702455D01*
X138160395Y-72820000D01*
X137277940Y-71937545D01*
X137094129Y-71997880D01*
X137080862Y-71965771D01*
X136665464Y-71549647D01*
X137070353Y-71145464D01*
X137483537Y-71559370D01*
X137518024Y-71573690D01*
X137457545Y-71757940D01*
X138340000Y-72640395D01*
X139222455Y-71757940D01*
X139162120Y-71574129D01*
X139194229Y-71560862D01*
X139610353Y-71145464D01*
X140014536Y-71550353D01*
X139600630Y-71963537D01*
X139586310Y-71998024D01*
X139402060Y-71937545D01*
X138519605Y-72820000D01*
X139402060Y-73702455D01*
X139585871Y-73642120D01*
X139599138Y-73674229D01*
X140023537Y-74099370D01*
X140532688Y-74310788D01*
X140490162Y-74413201D01*
X140489838Y-74785167D01*
X140631883Y-75128943D01*
X140894673Y-75392192D01*
X141238201Y-75534838D01*
X141610167Y-75535162D01*
X141953943Y-75393117D01*
X141987118Y-75360000D01*
X142910000Y-75360000D01*
X142910000Y-81487537D01*
X142877808Y-81519673D01*
X142735162Y-81863201D01*
X142734838Y-82235167D01*
X142876883Y-82578943D01*
X143139673Y-82842192D01*
X143483201Y-82984838D01*
X143855167Y-82985162D01*
X144198943Y-82843117D01*
X144208207Y-82833869D01*
X144511547Y-82959827D01*
X144883513Y-82960151D01*
X145227289Y-82818106D01*
X145490538Y-82555316D01*
X145583729Y-82330888D01*
X145706883Y-82628943D01*
X145752947Y-82675087D01*
X145797852Y-82900839D01*
X145962599Y-83147401D01*
X146090000Y-83274802D01*
X146090000Y-92990000D01*
X125260000Y-92990000D01*
X124969161Y-93047852D01*
X124722599Y-93212599D01*
X124492599Y-93442599D01*
X124327852Y-93689161D01*
X124270000Y-93980000D01*
X124270000Y-94297537D01*
X124237808Y-94329673D01*
X124095162Y-94673201D01*
X124094838Y-95045167D01*
X124236883Y-95388943D01*
X124499673Y-95652192D01*
X124843201Y-95794838D01*
X125215167Y-95795162D01*
X125558943Y-95653117D01*
X125822192Y-95390327D01*
X125964838Y-95046799D01*
X125965162Y-94674833D01*
X125897055Y-94510000D01*
X133991491Y-94510000D01*
X133990162Y-94513201D01*
X133989838Y-94885167D01*
X134131883Y-95228943D01*
X134394673Y-95492192D01*
X134427926Y-95506000D01*
X128034000Y-95506000D01*
X127743160Y-95563852D01*
X127496599Y-95728599D01*
X127162599Y-96062599D01*
X126997852Y-96309161D01*
X126940000Y-96600000D01*
X126940000Y-96715453D01*
X126916485Y-96725169D01*
X126526539Y-97114436D01*
X126315241Y-97623298D01*
X126314760Y-98174285D01*
X126525169Y-98683515D01*
X126914436Y-99073461D01*
X126977875Y-99099803D01*
X126916485Y-99125169D01*
X126526539Y-99514436D01*
X126315241Y-100023298D01*
X126314760Y-100574285D01*
X126525169Y-101083515D01*
X126914436Y-101473461D01*
X127423298Y-101684759D01*
X127974285Y-101685240D01*
X128483515Y-101474831D01*
X128750123Y-101208687D01*
X129014436Y-101473461D01*
X129523298Y-101684759D01*
X130074285Y-101685240D01*
X130583515Y-101474831D01*
X130673531Y-101384971D01*
X133274821Y-101384971D01*
X133432058Y-101765515D01*
X133722954Y-102056919D01*
X134103223Y-102214820D01*
X134514971Y-102215179D01*
X134895515Y-102057942D01*
X134913488Y-102040000D01*
X138885198Y-102040000D01*
X137037599Y-103887599D01*
X136872852Y-104134161D01*
X136815000Y-104425000D01*
X136815000Y-108300000D01*
X136872852Y-108590839D01*
X137037599Y-108837401D01*
X137337599Y-109137401D01*
X137584161Y-109302148D01*
X137875000Y-109360000D01*
X138387537Y-109360000D01*
X138419673Y-109392192D01*
X138763201Y-109534838D01*
X139135167Y-109535162D01*
X139478943Y-109393117D01*
X139637546Y-109234791D01*
X139794673Y-109392192D01*
X140138201Y-109534838D01*
X140365000Y-109535036D01*
X140365000Y-111063981D01*
X140160777Y-110979180D01*
X139749029Y-110978821D01*
X139368485Y-111136058D01*
X139077081Y-111426954D01*
X138919180Y-111807223D01*
X138918821Y-112218971D01*
X139076058Y-112599515D01*
X139366954Y-112890919D01*
X139747223Y-113048820D01*
X140158971Y-113049179D01*
X140539515Y-112891942D01*
X140557488Y-112874000D01*
X140970000Y-112874000D01*
X141299108Y-112808536D01*
X141578112Y-112622112D01*
X141833112Y-112367112D01*
X142019536Y-112088108D01*
X142085000Y-111759000D01*
X142085000Y-108303936D01*
X142101919Y-108287046D01*
X142259820Y-107906777D01*
X142260179Y-107495029D01*
X142228153Y-107417521D01*
X142729813Y-107417521D01*
X142728331Y-107435086D01*
X142735852Y-107501842D01*
X142761785Y-107583208D01*
X142764201Y-107600326D01*
X142764001Y-107607473D01*
X142765920Y-107612501D01*
X142773723Y-107667770D01*
X142795912Y-107731179D01*
X142824266Y-107779245D01*
X142825901Y-107784376D01*
X142830517Y-107789842D01*
X142839298Y-107804728D01*
X142845460Y-107820871D01*
X142846855Y-107827885D01*
X142849846Y-107832361D01*
X142869753Y-107884512D01*
X142905494Y-107941393D01*
X142943841Y-107981953D01*
X142946576Y-107986590D01*
X142952290Y-107990890D01*
X142964161Y-108003446D01*
X142973758Y-108017809D01*
X142976679Y-108024337D01*
X142980591Y-108028035D01*
X143011602Y-108074447D01*
X143059105Y-108121950D01*
X143105517Y-108152962D01*
X143109215Y-108156873D01*
X143115742Y-108159794D01*
X143130106Y-108169392D01*
X143142662Y-108181262D01*
X143146962Y-108186976D01*
X143151599Y-108189711D01*
X143192159Y-108228058D01*
X143249040Y-108263799D01*
X143301189Y-108283705D01*
X143305666Y-108286697D01*
X143312682Y-108288093D01*
X143328821Y-108294253D01*
X143343703Y-108303032D01*
X143349167Y-108307646D01*
X143354296Y-108309281D01*
X143402373Y-108337641D01*
X143465782Y-108359829D01*
X143521051Y-108367632D01*
X143526079Y-108369551D01*
X143533226Y-108369351D01*
X143550339Y-108371766D01*
X143566811Y-108377017D01*
X143573163Y-108380298D01*
X143578525Y-108380750D01*
X143631700Y-108397699D01*
X143698456Y-108405221D01*
X143754077Y-108400530D01*
X143759407Y-108401282D01*
X143766330Y-108399496D01*
X143783554Y-108398043D01*
X143800774Y-108399496D01*
X143807698Y-108401282D01*
X143813028Y-108400529D01*
X143868651Y-108405221D01*
X143870869Y-108404971D01*
X180164821Y-108404971D01*
X180322058Y-108785515D01*
X180612954Y-109076919D01*
X180993223Y-109234820D01*
X181404971Y-109235179D01*
X181785515Y-109077942D01*
X182076919Y-108787046D01*
X182234820Y-108406777D01*
X182234961Y-108244215D01*
X187827460Y-108244215D01*
X187827460Y-108593585D01*
X187911954Y-109018364D01*
X188152571Y-109378474D01*
X188512681Y-109619091D01*
X188937460Y-109703585D01*
X189362239Y-109619091D01*
X189661847Y-109418900D01*
X190199836Y-109418900D01*
X190286233Y-109853246D01*
X190532270Y-110221466D01*
X190900490Y-110467503D01*
X191334836Y-110553900D01*
X191940084Y-110553900D01*
X192374430Y-110467503D01*
X192742650Y-110221466D01*
X192988687Y-109853246D01*
X193075084Y-109418900D01*
X192988687Y-108984554D01*
X192742650Y-108616334D01*
X192374430Y-108370297D01*
X191940084Y-108283900D01*
X191334836Y-108283900D01*
X190900490Y-108370297D01*
X190532270Y-108616334D01*
X190286233Y-108984554D01*
X190199836Y-109418900D01*
X189661847Y-109418900D01*
X189722349Y-109378474D01*
X189962966Y-109018364D01*
X190047460Y-108593585D01*
X190047460Y-108244215D01*
X189962966Y-107819436D01*
X189722349Y-107459326D01*
X189362239Y-107218709D01*
X188937460Y-107134215D01*
X188512681Y-107218709D01*
X188152571Y-107459326D01*
X187911954Y-107819436D01*
X187827460Y-108244215D01*
X182234961Y-108244215D01*
X182235179Y-107995029D01*
X182080000Y-107619466D01*
X182080000Y-103244215D01*
X187827460Y-103244215D01*
X187827460Y-103593585D01*
X187911954Y-104018364D01*
X188152571Y-104378474D01*
X188512681Y-104619091D01*
X188937460Y-104703585D01*
X189362239Y-104619091D01*
X189722349Y-104378474D01*
X189962966Y-104018364D01*
X190047460Y-103593585D01*
X190047460Y-103244215D01*
X189962966Y-102819436D01*
X189722349Y-102459326D01*
X189661848Y-102418900D01*
X190199836Y-102418900D01*
X190286233Y-102853246D01*
X190532270Y-103221466D01*
X190900490Y-103467503D01*
X191334836Y-103553900D01*
X191940084Y-103553900D01*
X192374430Y-103467503D01*
X192742650Y-103221466D01*
X192988687Y-102853246D01*
X193075084Y-102418900D01*
X192988687Y-101984554D01*
X192742650Y-101616334D01*
X192374430Y-101370297D01*
X191940084Y-101283900D01*
X191334836Y-101283900D01*
X190900490Y-101370297D01*
X190532270Y-101616334D01*
X190286233Y-101984554D01*
X190199836Y-102418900D01*
X189661848Y-102418900D01*
X189362239Y-102218709D01*
X188937460Y-102134215D01*
X188512681Y-102218709D01*
X188152571Y-102459326D01*
X187911954Y-102819436D01*
X187827460Y-103244215D01*
X182080000Y-103244215D01*
X182080000Y-92763936D01*
X182096919Y-92747046D01*
X182254820Y-92366777D01*
X182255179Y-91955029D01*
X182097942Y-91574485D01*
X181807046Y-91283081D01*
X181426777Y-91125180D01*
X181015029Y-91124821D01*
X180634485Y-91282058D01*
X180343081Y-91572954D01*
X180185180Y-91953223D01*
X180184821Y-92364971D01*
X180342058Y-92745515D01*
X180360000Y-92763488D01*
X180360000Y-107576099D01*
X180323081Y-107612954D01*
X180165180Y-107993223D01*
X180164821Y-108404971D01*
X143870869Y-108404971D01*
X143935406Y-108397699D01*
X143988580Y-108380750D01*
X143993944Y-108380298D01*
X144000299Y-108377015D01*
X144016765Y-108371767D01*
X144033879Y-108369351D01*
X144041026Y-108369551D01*
X144046054Y-108367632D01*
X144101323Y-108359829D01*
X144164732Y-108337640D01*
X144212809Y-108309280D01*
X144217938Y-108307645D01*
X144223401Y-108303032D01*
X144238281Y-108294254D01*
X144254424Y-108288092D01*
X144261438Y-108286697D01*
X144265914Y-108283706D01*
X144318065Y-108263799D01*
X144374946Y-108228058D01*
X144415506Y-108189711D01*
X144420143Y-108186976D01*
X144424443Y-108181262D01*
X144436999Y-108169391D01*
X144451362Y-108159794D01*
X144457890Y-108156873D01*
X144461588Y-108152961D01*
X144508000Y-108121950D01*
X144555503Y-108074447D01*
X144586515Y-108028035D01*
X144590426Y-108024337D01*
X144593347Y-108017810D01*
X144602945Y-108003446D01*
X144614815Y-107990890D01*
X144620529Y-107986590D01*
X144623264Y-107981953D01*
X144661611Y-107941393D01*
X144697352Y-107884512D01*
X144717258Y-107832363D01*
X144720250Y-107827886D01*
X144721646Y-107820870D01*
X144727806Y-107804731D01*
X144736585Y-107789848D01*
X144741198Y-107784386D01*
X144742832Y-107779258D01*
X144771194Y-107731179D01*
X144793382Y-107667770D01*
X144801185Y-107612501D01*
X144803104Y-107607473D01*
X144802904Y-107600326D01*
X144805319Y-107583214D01*
X144831252Y-107501854D01*
X144838774Y-107435098D01*
X144836657Y-107410000D01*
X165247766Y-107410000D01*
X165488201Y-107509838D01*
X165860167Y-107510162D01*
X166203943Y-107368117D01*
X166365019Y-107207322D01*
X166364838Y-107415167D01*
X166506883Y-107758943D01*
X166769673Y-108022192D01*
X167113201Y-108164838D01*
X167485167Y-108165162D01*
X167828943Y-108023117D01*
X168092192Y-107760327D01*
X168234838Y-107416799D01*
X168235162Y-107044833D01*
X168093117Y-106701057D01*
X168060000Y-106667882D01*
X168060000Y-105200000D01*
X168002148Y-104909161D01*
X167837401Y-104662599D01*
X167412401Y-104237599D01*
X167165839Y-104072852D01*
X166875000Y-104015000D01*
X141534879Y-104015000D01*
X141534905Y-103985000D01*
X142775000Y-103985000D01*
X143065839Y-103927148D01*
X143312401Y-103762401D01*
X143662401Y-103412401D01*
X143827148Y-103165839D01*
X143847904Y-103061493D01*
X144062954Y-103276919D01*
X144443223Y-103434820D01*
X144854971Y-103435179D01*
X145235515Y-103277942D01*
X145526919Y-102987046D01*
X145684820Y-102606777D01*
X145685166Y-102210000D01*
X149463036Y-102210000D01*
X149643223Y-102284820D01*
X150054971Y-102285179D01*
X150236919Y-102210000D01*
X150665165Y-102210000D01*
X150664821Y-102604971D01*
X150822058Y-102985515D01*
X151112954Y-103276919D01*
X151493223Y-103434820D01*
X151904971Y-103435179D01*
X152285515Y-103277942D01*
X152558962Y-103004971D01*
X153164821Y-103004971D01*
X153322058Y-103385515D01*
X153612954Y-103676919D01*
X153993223Y-103834820D01*
X154404971Y-103835179D01*
X154785515Y-103677942D01*
X154803488Y-103660000D01*
X156896064Y-103660000D01*
X156912954Y-103676919D01*
X157293223Y-103834820D01*
X157704971Y-103835179D01*
X158085515Y-103677942D01*
X158376919Y-103387046D01*
X158534820Y-103006777D01*
X158535179Y-102595029D01*
X158377942Y-102214485D01*
X158087046Y-101923081D01*
X157706777Y-101765180D01*
X157295029Y-101764821D01*
X156914485Y-101922058D01*
X156896512Y-101940000D01*
X154803936Y-101940000D01*
X154787046Y-101923081D01*
X154406777Y-101765180D01*
X153995029Y-101764821D01*
X153614485Y-101922058D01*
X153323081Y-102212954D01*
X153165180Y-102593223D01*
X153164821Y-103004971D01*
X152558962Y-103004971D01*
X152576919Y-102987046D01*
X152734820Y-102606777D01*
X152735179Y-102195029D01*
X152660000Y-102013081D01*
X152660000Y-101408005D01*
X152660001Y-101408000D01*
X152586924Y-101040624D01*
X152541888Y-100973223D01*
X152378823Y-100729177D01*
X152378820Y-100729175D01*
X152220823Y-100571177D01*
X151909376Y-100363076D01*
X151542000Y-100289999D01*
X151541995Y-100290000D01*
X150236964Y-100290000D01*
X150056777Y-100215180D01*
X149645029Y-100214821D01*
X149463081Y-100290000D01*
X144600000Y-100290000D01*
X144449181Y-100320000D01*
X134913936Y-100320000D01*
X134897046Y-100303081D01*
X134516777Y-100145180D01*
X134105029Y-100144821D01*
X133724485Y-100302058D01*
X133433081Y-100592954D01*
X133275180Y-100973223D01*
X133274821Y-101384971D01*
X130673531Y-101384971D01*
X130973461Y-101085564D01*
X131184759Y-100576702D01*
X131185240Y-100025715D01*
X131096109Y-99810000D01*
X141250000Y-99810000D01*
X141540839Y-99752148D01*
X141787401Y-99587401D01*
X143324802Y-98050000D01*
X145067537Y-98050000D01*
X145099673Y-98082192D01*
X145443201Y-98224838D01*
X145815167Y-98225162D01*
X146158943Y-98083117D01*
X146182100Y-98060000D01*
X146665012Y-98060000D01*
X146664838Y-98260167D01*
X146806883Y-98603943D01*
X147069673Y-98867192D01*
X147413201Y-99009838D01*
X147785167Y-99010162D01*
X148128943Y-98868117D01*
X148187162Y-98810000D01*
X151076872Y-98810000D01*
X151065162Y-98838201D01*
X151064838Y-99210167D01*
X151206883Y-99553943D01*
X151469673Y-99817192D01*
X151813201Y-99959838D01*
X152185167Y-99960162D01*
X152528943Y-99818117D01*
X152587162Y-99760000D01*
X163245198Y-99760000D01*
X164762599Y-101277401D01*
X165009161Y-101442148D01*
X165300000Y-101500000D01*
X176897537Y-101500000D01*
X176929673Y-101532192D01*
X177273201Y-101674838D01*
X177645167Y-101675162D01*
X177988943Y-101533117D01*
X178252192Y-101270327D01*
X178394838Y-100926799D01*
X178395162Y-100554833D01*
X178253117Y-100211057D01*
X177990327Y-99947808D01*
X177646799Y-99805162D01*
X177274833Y-99804838D01*
X176931057Y-99946883D01*
X176897882Y-99980000D01*
X176853783Y-99980000D01*
X176977401Y-99897401D01*
X177177401Y-99697401D01*
X177342148Y-99450839D01*
X177400000Y-99160000D01*
X177400000Y-98052463D01*
X177432192Y-98020327D01*
X177574838Y-97676799D01*
X177575162Y-97304833D01*
X177433117Y-96961057D01*
X177170327Y-96697808D01*
X176826799Y-96555162D01*
X176454833Y-96554838D01*
X176111057Y-96696883D01*
X175847808Y-96959673D01*
X175705162Y-97303201D01*
X175704838Y-97675167D01*
X175846883Y-98018943D01*
X175880000Y-98052118D01*
X175880000Y-98600000D01*
X166790290Y-98600000D01*
X166824838Y-98516799D01*
X166825162Y-98144833D01*
X166683117Y-97801057D01*
X166420327Y-97537808D01*
X166076799Y-97395162D01*
X165704833Y-97394838D01*
X165361057Y-97536883D01*
X165341354Y-97556552D01*
X164583471Y-96798669D01*
X164654838Y-96626799D01*
X164655162Y-96254833D01*
X164513117Y-95911057D01*
X164250327Y-95647808D01*
X163906799Y-95505162D01*
X163534833Y-95504838D01*
X163191057Y-95646883D01*
X163127830Y-95710000D01*
X157839823Y-95710000D01*
X157859838Y-95661799D01*
X157859883Y-95610009D01*
X158035167Y-95610162D01*
X158378943Y-95468117D01*
X158642192Y-95205327D01*
X158784838Y-94861799D01*
X158785162Y-94489833D01*
X158643117Y-94146057D01*
X158380327Y-93882808D01*
X158036799Y-93740162D01*
X157664833Y-93739838D01*
X157321057Y-93881883D01*
X157262838Y-93940000D01*
X151925000Y-93940000D01*
X151634161Y-93997852D01*
X151387599Y-94162599D01*
X151085198Y-94465000D01*
X148714802Y-94465000D01*
X148412401Y-94162599D01*
X148165839Y-93997852D01*
X147875000Y-93940000D01*
X147783509Y-93940000D01*
X147784838Y-93936799D01*
X147785162Y-93564833D01*
X147643117Y-93221057D01*
X147610000Y-93187882D01*
X147610000Y-92434966D01*
X147835167Y-92435162D01*
X148178943Y-92293117D01*
X148442192Y-92030327D01*
X148584838Y-91686799D01*
X148585162Y-91314833D01*
X148443117Y-90971057D01*
X148410000Y-90937882D01*
X148410000Y-82860000D01*
X148352148Y-82569161D01*
X148352148Y-82569160D01*
X148187401Y-82322599D01*
X148085000Y-82220198D01*
X148085000Y-81737419D01*
X148142192Y-81680327D01*
X148284838Y-81336799D01*
X148285162Y-80964833D01*
X148143117Y-80621057D01*
X147880327Y-80357808D01*
X147536799Y-80215162D01*
X147164833Y-80214838D01*
X146821057Y-80356883D01*
X146557808Y-80619673D01*
X146415162Y-80963201D01*
X146414986Y-81164925D01*
X146314833Y-81164838D01*
X145971057Y-81306883D01*
X145707808Y-81569673D01*
X145614617Y-81794101D01*
X145491463Y-81496046D01*
X145458346Y-81462871D01*
X145458346Y-77405845D01*
X145469673Y-77417192D01*
X145813201Y-77559838D01*
X146185167Y-77560162D01*
X146289897Y-77516888D01*
X146289838Y-77585167D01*
X146431883Y-77928943D01*
X146694673Y-78192192D01*
X147038201Y-78334838D01*
X147410167Y-78335162D01*
X147753943Y-78193117D01*
X148017192Y-77930327D01*
X148159838Y-77586799D01*
X148160162Y-77214833D01*
X148018117Y-76871057D01*
X147990000Y-76842891D01*
X147990000Y-74243234D01*
X148198325Y-74329738D01*
X148799040Y-74330262D01*
X149010000Y-74243095D01*
X149010000Y-77567572D01*
X148957808Y-77619673D01*
X148815162Y-77963201D01*
X148814838Y-78335167D01*
X148956883Y-78678943D01*
X149219673Y-78942192D01*
X149563201Y-79084838D01*
X149935167Y-79085162D01*
X150278943Y-78943117D01*
X150280000Y-78942062D01*
X150280000Y-84193251D01*
X150031777Y-84090180D01*
X149620029Y-84089821D01*
X149239485Y-84247058D01*
X148948081Y-84537954D01*
X148790180Y-84918223D01*
X148789821Y-85329971D01*
X148947058Y-85710515D01*
X148965000Y-85728488D01*
X148965000Y-86896064D01*
X148948081Y-86912954D01*
X148790180Y-87293223D01*
X148789821Y-87704971D01*
X148865000Y-87886919D01*
X148865000Y-90238036D01*
X148790180Y-90418223D01*
X148789821Y-90829971D01*
X148865000Y-91011919D01*
X148865000Y-92927829D01*
X148765180Y-93168223D01*
X148764821Y-93579971D01*
X148922058Y-93960515D01*
X149212954Y-94251919D01*
X149593223Y-94409820D01*
X150004971Y-94410179D01*
X150385515Y-94252942D01*
X150676919Y-93962046D01*
X150834820Y-93581777D01*
X150835179Y-93170029D01*
X150785000Y-93048586D01*
X150785000Y-91546912D01*
X150840204Y-91569835D01*
X151218138Y-91570165D01*
X151567429Y-91425841D01*
X151834902Y-91158835D01*
X151979835Y-90809796D01*
X151980165Y-90431862D01*
X151835841Y-90082571D01*
X151800000Y-90046667D01*
X151800000Y-88424802D01*
X153915000Y-90539802D01*
X153915000Y-90662494D01*
X153907808Y-90669673D01*
X153765162Y-91013201D01*
X153764838Y-91385167D01*
X153906883Y-91728943D01*
X154169673Y-91992192D01*
X154513201Y-92134838D01*
X154790000Y-92135079D01*
X154790000Y-92162581D01*
X154732808Y-92219673D01*
X154590162Y-92563201D01*
X154589838Y-92935167D01*
X154731883Y-93278943D01*
X154994673Y-93542192D01*
X155338201Y-93684838D01*
X155710167Y-93685162D01*
X156053943Y-93543117D01*
X156317192Y-93280327D01*
X156362616Y-93170934D01*
X156484161Y-93252148D01*
X156775000Y-93310000D01*
X157237537Y-93310000D01*
X157269673Y-93342192D01*
X157613201Y-93484838D01*
X157985167Y-93485162D01*
X158328943Y-93343117D01*
X158592192Y-93080327D01*
X158734838Y-92736799D01*
X158735162Y-92364833D01*
X158593117Y-92021057D01*
X158559769Y-91987650D01*
X158617192Y-91930327D01*
X158759838Y-91586799D01*
X158760162Y-91214833D01*
X158618117Y-90871057D01*
X158559769Y-90812607D01*
X158642192Y-90730327D01*
X158784838Y-90386799D01*
X158785162Y-90014833D01*
X158643117Y-89671057D01*
X158610000Y-89637882D01*
X158610000Y-89525000D01*
X158552148Y-89234161D01*
X158387401Y-88987599D01*
X154985000Y-85585198D01*
X154985000Y-82335167D01*
X157214838Y-82335167D01*
X157356883Y-82678943D01*
X157390000Y-82712118D01*
X157390000Y-84450000D01*
X157447852Y-84740839D01*
X157612599Y-84987401D01*
X158387599Y-85762401D01*
X158634161Y-85927148D01*
X158925000Y-85985000D01*
X159337537Y-85985000D01*
X159369673Y-86017192D01*
X159713201Y-86159838D01*
X160085167Y-86160162D01*
X160428943Y-86018117D01*
X160692192Y-85755327D01*
X160834838Y-85411799D01*
X160835144Y-85060000D01*
X164445198Y-85060000D01*
X164902599Y-85517401D01*
X165149160Y-85682148D01*
X165440000Y-85740000D01*
X173100000Y-85740000D01*
X173390839Y-85682148D01*
X173637401Y-85517401D01*
X174037401Y-85117401D01*
X174202148Y-84870840D01*
X174224260Y-84759673D01*
X174260000Y-84580000D01*
X174260000Y-82770000D01*
X174895147Y-82770000D01*
X174894838Y-83125167D01*
X175036883Y-83468943D01*
X175070000Y-83502118D01*
X175070000Y-86390000D01*
X168123761Y-86390000D01*
X168007046Y-86273081D01*
X167626777Y-86115180D01*
X167215029Y-86114821D01*
X166834485Y-86272058D01*
X166543081Y-86562954D01*
X166385180Y-86943223D01*
X166384821Y-87354971D01*
X166542058Y-87735515D01*
X166560000Y-87753488D01*
X166560000Y-88833776D01*
X166529915Y-88863861D01*
X166523888Y-88867888D01*
X166337464Y-89146892D01*
X166272000Y-89476000D01*
X166272000Y-90887556D01*
X166072330Y-91020971D01*
X165747474Y-91507152D01*
X165633400Y-92080641D01*
X165633400Y-92139359D01*
X165747474Y-92712848D01*
X166059904Y-93180432D01*
X166020635Y-93188243D01*
X165810591Y-93328591D01*
X165670243Y-93538635D01*
X165620960Y-93786400D01*
X165620960Y-95513600D01*
X165670243Y-95761365D01*
X165810591Y-95971409D01*
X166020635Y-96111757D01*
X166268400Y-96161040D01*
X167995600Y-96161040D01*
X168243365Y-96111757D01*
X168453409Y-95971409D01*
X168593757Y-95761365D01*
X168601441Y-95722733D01*
X168612330Y-95739029D01*
X169098511Y-96063885D01*
X169672000Y-96177959D01*
X170245489Y-96063885D01*
X170731670Y-95739029D01*
X170942000Y-95424248D01*
X171152330Y-95739029D01*
X171638511Y-96063885D01*
X172212000Y-96177959D01*
X172785489Y-96063885D01*
X173271670Y-95739029D01*
X173491520Y-95410000D01*
X177957537Y-95410000D01*
X177989673Y-95442192D01*
X178333201Y-95584838D01*
X178705167Y-95585162D01*
X179048943Y-95443117D01*
X179312192Y-95180327D01*
X179454838Y-94836799D01*
X179455162Y-94464833D01*
X179313117Y-94121057D01*
X179050327Y-93857808D01*
X178706799Y-93715162D01*
X178334833Y-93714838D01*
X177991057Y-93856883D01*
X177957882Y-93890000D01*
X173491520Y-93890000D01*
X173271670Y-93560971D01*
X173000828Y-93380000D01*
X173271670Y-93199029D01*
X173596526Y-92712848D01*
X173710600Y-92139359D01*
X173710600Y-92080641D01*
X173596526Y-91507152D01*
X173572282Y-91470869D01*
X173578943Y-91468117D01*
X173842192Y-91205327D01*
X173984838Y-90861799D01*
X173985162Y-90489833D01*
X173843117Y-90146057D01*
X173580327Y-89882808D01*
X173236799Y-89740162D01*
X172864833Y-89739838D01*
X172521057Y-89881883D01*
X172487882Y-89915000D01*
X168725000Y-89915000D01*
X168434161Y-89972852D01*
X168187599Y-90137599D01*
X167992000Y-90333198D01*
X167992000Y-89834224D01*
X168028112Y-89798112D01*
X168049675Y-89765840D01*
X168214536Y-89519108D01*
X168280000Y-89190000D01*
X168280000Y-87910000D01*
X175400000Y-87910000D01*
X175690839Y-87852148D01*
X175937401Y-87687401D01*
X176367401Y-87257401D01*
X176532148Y-87010839D01*
X176590000Y-86720000D01*
X176590000Y-84660000D01*
X177860000Y-84660000D01*
X177860000Y-88387537D01*
X177827808Y-88419673D01*
X177685162Y-88763201D01*
X177684838Y-89135167D01*
X177826883Y-89478943D01*
X178089673Y-89742192D01*
X178433201Y-89884838D01*
X178805167Y-89885162D01*
X179148943Y-89743117D01*
X179412192Y-89480327D01*
X179554838Y-89136799D01*
X179555162Y-88764833D01*
X179413117Y-88421057D01*
X179380000Y-88387882D01*
X179380000Y-86785167D01*
X180914838Y-86785167D01*
X181056883Y-87128943D01*
X181319673Y-87392192D01*
X181663201Y-87534838D01*
X182035167Y-87535162D01*
X182378943Y-87393117D01*
X182642192Y-87130327D01*
X182784838Y-86786799D01*
X182785162Y-86414833D01*
X182643117Y-86071057D01*
X182620000Y-86047900D01*
X182620000Y-85742463D01*
X182652192Y-85710327D01*
X182794838Y-85366799D01*
X182795162Y-84994833D01*
X182653117Y-84651057D01*
X182390327Y-84387808D01*
X182046799Y-84245162D01*
X181674833Y-84244838D01*
X181331057Y-84386883D01*
X181067808Y-84649673D01*
X180925162Y-84993201D01*
X180924838Y-85365167D01*
X181066883Y-85708943D01*
X181100000Y-85742118D01*
X181100000Y-86027555D01*
X181057808Y-86069673D01*
X180915162Y-86413201D01*
X180914838Y-86785167D01*
X179380000Y-86785167D01*
X179380000Y-84482428D01*
X179432192Y-84430327D01*
X179574838Y-84086799D01*
X179575162Y-83714833D01*
X179519450Y-83580000D01*
X180130000Y-83580000D01*
X180420839Y-83522148D01*
X180667401Y-83357401D01*
X181187401Y-82837401D01*
X181352148Y-82590839D01*
X181410000Y-82300000D01*
X181410000Y-82246971D01*
X185400821Y-82246971D01*
X185558058Y-82627515D01*
X185601000Y-82670532D01*
X185601000Y-87001108D01*
X185559081Y-87042954D01*
X185401180Y-87423223D01*
X185400821Y-87834971D01*
X185558058Y-88215515D01*
X185848954Y-88506919D01*
X186229223Y-88664820D01*
X186640971Y-88665179D01*
X187021515Y-88507942D01*
X187097374Y-88432215D01*
X187827460Y-88432215D01*
X187827460Y-88781585D01*
X187911954Y-89206364D01*
X188152571Y-89566474D01*
X188512681Y-89807091D01*
X188937460Y-89891585D01*
X189362239Y-89807091D01*
X189661847Y-89606900D01*
X190199836Y-89606900D01*
X190286233Y-90041246D01*
X190532270Y-90409466D01*
X190900490Y-90655503D01*
X191334836Y-90741900D01*
X191940084Y-90741900D01*
X192374430Y-90655503D01*
X192742650Y-90409466D01*
X192988687Y-90041246D01*
X193075084Y-89606900D01*
X192988687Y-89172554D01*
X192742650Y-88804334D01*
X192374430Y-88558297D01*
X191940084Y-88471900D01*
X191334836Y-88471900D01*
X190900490Y-88558297D01*
X190532270Y-88804334D01*
X190286233Y-89172554D01*
X190199836Y-89606900D01*
X189661847Y-89606900D01*
X189722349Y-89566474D01*
X189962966Y-89206364D01*
X190047460Y-88781585D01*
X190047460Y-88432215D01*
X189962966Y-88007436D01*
X189722349Y-87647326D01*
X189362239Y-87406709D01*
X188937460Y-87322215D01*
X188512681Y-87406709D01*
X188152571Y-87647326D01*
X187911954Y-88007436D01*
X187827460Y-88432215D01*
X187097374Y-88432215D01*
X187312919Y-88217046D01*
X187470820Y-87836777D01*
X187471179Y-87425029D01*
X187313942Y-87044485D01*
X187271000Y-87001468D01*
X187271000Y-83432215D01*
X187827460Y-83432215D01*
X187827460Y-83781585D01*
X187911954Y-84206364D01*
X188152571Y-84566474D01*
X188512681Y-84807091D01*
X188937460Y-84891585D01*
X189362239Y-84807091D01*
X189722349Y-84566474D01*
X189962966Y-84206364D01*
X190047460Y-83781585D01*
X190047460Y-83432215D01*
X189962966Y-83007436D01*
X189722349Y-82647326D01*
X189661848Y-82606900D01*
X190199836Y-82606900D01*
X190286233Y-83041246D01*
X190532270Y-83409466D01*
X190900490Y-83655503D01*
X191334836Y-83741900D01*
X191940084Y-83741900D01*
X192374430Y-83655503D01*
X192742650Y-83409466D01*
X192988687Y-83041246D01*
X193075084Y-82606900D01*
X192988687Y-82172554D01*
X192742650Y-81804334D01*
X192374430Y-81558297D01*
X191940084Y-81471900D01*
X191334836Y-81471900D01*
X190900490Y-81558297D01*
X190532270Y-81804334D01*
X190286233Y-82172554D01*
X190199836Y-82606900D01*
X189661848Y-82606900D01*
X189362239Y-82406709D01*
X188937460Y-82322215D01*
X188512681Y-82406709D01*
X188152571Y-82647326D01*
X187911954Y-83007436D01*
X187827460Y-83432215D01*
X187271000Y-83432215D01*
X187271000Y-82670892D01*
X187312919Y-82629046D01*
X187470820Y-82248777D01*
X187471179Y-81837029D01*
X187313942Y-81456485D01*
X187023046Y-81165081D01*
X186642777Y-81007180D01*
X186231029Y-81006821D01*
X185850485Y-81164058D01*
X185559081Y-81454954D01*
X185401180Y-81835223D01*
X185400821Y-82246971D01*
X181410000Y-82246971D01*
X181410000Y-80630000D01*
X184600000Y-80630000D01*
X184890839Y-80572148D01*
X185137401Y-80407401D01*
X185417401Y-80127401D01*
X185582148Y-79880839D01*
X185586802Y-79857440D01*
X185630000Y-79857440D01*
X185877765Y-79808157D01*
X186087809Y-79667809D01*
X186138341Y-79592183D01*
X186182191Y-79657809D01*
X186392235Y-79798157D01*
X186640000Y-79847440D01*
X188140000Y-79847440D01*
X188387765Y-79798157D01*
X188597809Y-79657809D01*
X188738157Y-79447765D01*
X188787440Y-79200000D01*
X188787440Y-77700000D01*
X188738157Y-77452235D01*
X188597809Y-77242191D01*
X188387765Y-77101843D01*
X188140000Y-77052560D01*
X186640000Y-77052560D01*
X186392235Y-77101843D01*
X186182191Y-77242191D01*
X186131659Y-77317817D01*
X186087809Y-77252191D01*
X185877765Y-77111843D01*
X185630000Y-77062560D01*
X184130000Y-77062560D01*
X183882235Y-77111843D01*
X183760000Y-77193518D01*
X183637765Y-77111843D01*
X183390000Y-77062560D01*
X181890000Y-77062560D01*
X181642235Y-77111843D01*
X181432191Y-77252191D01*
X181291843Y-77462235D01*
X181244549Y-77700000D01*
X180360000Y-77700000D01*
X180069161Y-77757852D01*
X179822599Y-77922599D01*
X179576422Y-78168776D01*
X178958823Y-77551177D01*
X178647376Y-77343076D01*
X178280000Y-77269999D01*
X178279995Y-77270000D01*
X170869212Y-77270000D01*
X170616777Y-77165180D01*
X170205029Y-77164821D01*
X169824485Y-77322058D01*
X169533081Y-77612954D01*
X169375180Y-77993223D01*
X169374821Y-78404971D01*
X169532058Y-78785515D01*
X169822954Y-79076919D01*
X170203223Y-79234820D01*
X170614971Y-79235179D01*
X170724313Y-79190000D01*
X177882354Y-79190000D01*
X178060000Y-79367645D01*
X178060000Y-81053036D01*
X177985180Y-81233223D01*
X177984947Y-81500000D01*
X177914802Y-81500000D01*
X176757401Y-80342599D01*
X176510839Y-80177852D01*
X176220000Y-80120000D01*
X170152463Y-80120000D01*
X170120327Y-80087808D01*
X169776799Y-79945162D01*
X169404833Y-79944838D01*
X169061057Y-80086883D01*
X168797808Y-80349673D01*
X168655162Y-80693201D01*
X168654838Y-81065167D01*
X168796883Y-81408943D01*
X169059673Y-81672192D01*
X169403201Y-81814838D01*
X169775167Y-81815162D01*
X170118943Y-81673117D01*
X170152118Y-81640000D01*
X172641234Y-81640000D01*
X172565162Y-81823201D01*
X172564838Y-82195167D01*
X172706883Y-82538943D01*
X172740000Y-82572118D01*
X172740000Y-84220000D01*
X165754802Y-84220000D01*
X165297401Y-83762599D01*
X165050839Y-83597852D01*
X164760000Y-83540000D01*
X160452463Y-83540000D01*
X160420327Y-83507808D01*
X160076799Y-83365162D01*
X159704833Y-83364838D01*
X159361057Y-83506883D01*
X159097808Y-83769673D01*
X158955162Y-84113201D01*
X158955104Y-84180302D01*
X158910000Y-84135198D01*
X158910000Y-82712463D01*
X158942192Y-82680327D01*
X159084838Y-82336799D01*
X159085162Y-81964833D01*
X158943117Y-81621057D01*
X158680327Y-81357808D01*
X158336799Y-81215162D01*
X157964833Y-81214838D01*
X157621057Y-81356883D01*
X157357808Y-81619673D01*
X157215162Y-81963201D01*
X157214838Y-82335167D01*
X154985000Y-82335167D01*
X154985000Y-80484944D01*
X155254971Y-80485179D01*
X155436919Y-80410000D01*
X158852354Y-80410000D01*
X159893175Y-81450820D01*
X159893177Y-81450823D01*
X160147952Y-81621057D01*
X160204624Y-81658924D01*
X160572000Y-81732000D01*
X165590000Y-81732000D01*
X165590000Y-82546064D01*
X165573081Y-82562954D01*
X165415180Y-82943223D01*
X165414821Y-83354971D01*
X165572058Y-83735515D01*
X165862954Y-84026919D01*
X166243223Y-84184820D01*
X166654971Y-84185179D01*
X167035515Y-84027942D01*
X167326919Y-83737046D01*
X167484820Y-83356777D01*
X167485179Y-82945029D01*
X167327942Y-82564485D01*
X167310000Y-82546512D01*
X167310000Y-81696594D01*
X167499376Y-81658924D01*
X167810823Y-81450823D01*
X168158820Y-81102825D01*
X168158823Y-81102823D01*
X168366924Y-80791376D01*
X168431232Y-80468080D01*
X168514820Y-80266777D01*
X168515179Y-79855029D01*
X168357942Y-79474485D01*
X168067046Y-79183081D01*
X167686777Y-79025180D01*
X167275029Y-79024821D01*
X166894485Y-79182058D01*
X166603081Y-79472954D01*
X166462297Y-79812000D01*
X160969645Y-79812000D01*
X159928823Y-78771177D01*
X159808786Y-78690971D01*
X160254821Y-78690971D01*
X160412058Y-79071515D01*
X160702954Y-79362919D01*
X161083223Y-79520820D01*
X161494971Y-79521179D01*
X161875515Y-79363942D01*
X161893488Y-79346000D01*
X165258064Y-79346000D01*
X165274954Y-79362919D01*
X165655223Y-79520820D01*
X166066971Y-79521179D01*
X166447515Y-79363942D01*
X166738919Y-79073046D01*
X166896820Y-78692777D01*
X166897179Y-78281029D01*
X166739942Y-77900485D01*
X166449046Y-77609081D01*
X166068777Y-77451180D01*
X165657029Y-77450821D01*
X165276485Y-77608058D01*
X165258512Y-77626000D01*
X161893936Y-77626000D01*
X161877046Y-77609081D01*
X161496777Y-77451180D01*
X161085029Y-77450821D01*
X160704485Y-77608058D01*
X160413081Y-77898954D01*
X160255180Y-78279223D01*
X160254821Y-78690971D01*
X159808786Y-78690971D01*
X159617376Y-78563076D01*
X159250000Y-78489999D01*
X159249995Y-78490000D01*
X155436964Y-78490000D01*
X155256777Y-78415180D01*
X154985000Y-78414943D01*
X154985000Y-76914802D01*
X155389802Y-76510000D01*
X160630000Y-76510000D01*
X160892817Y-76457722D01*
X161004883Y-76728943D01*
X161267673Y-76992192D01*
X161611201Y-77134838D01*
X161983167Y-77135162D01*
X162306371Y-77001617D01*
X162627201Y-77134838D01*
X162999167Y-77135162D01*
X163342943Y-76993117D01*
X163376118Y-76960000D01*
X164275000Y-76960000D01*
X164565839Y-76902148D01*
X164812401Y-76737401D01*
X165487401Y-76062401D01*
X165652148Y-75815839D01*
X165710000Y-75525000D01*
X165710000Y-74218320D01*
X165978325Y-74329738D01*
X166579040Y-74330262D01*
X167134229Y-74100862D01*
X167559370Y-73676463D01*
X167789738Y-73121675D01*
X167790262Y-72520960D01*
X167560862Y-71965771D01*
X167543182Y-71948060D01*
X169139652Y-71948060D01*
X169445012Y-72687086D01*
X170009940Y-73253001D01*
X170748432Y-73559650D01*
X171548060Y-73560348D01*
X172287086Y-73254988D01*
X172853001Y-72690060D01*
X173159650Y-71951568D01*
X173160348Y-71151940D01*
X172854988Y-70412914D01*
X172290060Y-69846999D01*
X171551568Y-69540350D01*
X170751940Y-69539652D01*
X170012914Y-69845012D01*
X169446999Y-70409940D01*
X169140350Y-71148432D01*
X169139652Y-71948060D01*
X167543182Y-71948060D01*
X167145464Y-71549647D01*
X167559370Y-71136463D01*
X167789738Y-70581675D01*
X167790262Y-69980960D01*
X167560862Y-69425771D01*
X167136463Y-69000630D01*
X166581675Y-68770262D01*
X165980960Y-68769738D01*
X165425771Y-68999138D01*
X165009647Y-69414536D01*
X164596463Y-69000630D01*
X164041675Y-68770262D01*
X163440960Y-68769738D01*
X162885771Y-68999138D01*
X162469647Y-69414536D01*
X162056463Y-69000630D01*
X161501675Y-68770262D01*
X160900960Y-68769738D01*
X160345771Y-68999138D01*
X159929647Y-69414536D01*
X159516463Y-69000630D01*
X158961675Y-68770262D01*
X158360960Y-68769738D01*
X157805771Y-68999138D01*
X157389647Y-69414536D01*
X156976463Y-69000630D01*
X156421675Y-68770262D01*
X155820960Y-68769738D01*
X155265771Y-68999138D01*
X154849647Y-69414536D01*
X154436463Y-69000630D01*
X153881675Y-68770262D01*
X153280960Y-68769738D01*
X152725771Y-68999138D01*
X152309647Y-69414536D01*
X151896463Y-69000630D01*
X151341675Y-68770262D01*
X150740960Y-68769738D01*
X150185771Y-68999138D01*
X149769647Y-69414536D01*
X149356463Y-69000630D01*
X148801675Y-68770262D01*
X148200960Y-68769738D01*
X147645771Y-68999138D01*
X147229647Y-69414536D01*
X146816463Y-69000630D01*
X146261675Y-68770262D01*
X145660960Y-68769738D01*
X145105771Y-68999138D01*
X144689647Y-69414536D01*
X144276463Y-69000630D01*
X143721675Y-68770262D01*
X143120960Y-68769738D01*
X142565771Y-68999138D01*
X142149647Y-69414536D01*
X141736463Y-69000630D01*
X141181675Y-68770262D01*
X140580960Y-68769738D01*
X140025771Y-68999138D01*
X139609647Y-69414536D01*
X139196463Y-69000630D01*
X138641675Y-68770262D01*
X138040960Y-68769738D01*
X137485771Y-68999138D01*
X137069647Y-69414536D01*
X136656463Y-69000630D01*
X136101675Y-68770262D01*
X135500960Y-68769738D01*
X134945771Y-68999138D01*
X134529647Y-69414536D01*
X134116463Y-69000630D01*
X133561675Y-68770262D01*
X132960960Y-68769738D01*
X132405771Y-68999138D01*
X131989647Y-69414536D01*
X131576463Y-69000630D01*
X131021675Y-68770262D01*
X130420960Y-68769738D01*
X129865771Y-68999138D01*
X129449647Y-69414536D01*
X129036463Y-69000630D01*
X128481675Y-68770262D01*
X127880960Y-68769738D01*
X127325771Y-68999138D01*
X126909647Y-69414536D01*
X126496463Y-69000630D01*
X125941675Y-68770262D01*
X125340960Y-68769738D01*
X124785771Y-68999138D01*
X124369647Y-69414536D01*
X123956463Y-69000630D01*
X123401675Y-68770262D01*
X122800960Y-68769738D01*
X122245771Y-68999138D01*
X121829647Y-69414536D01*
X121416463Y-69000630D01*
X120861675Y-68770262D01*
X120260960Y-68769738D01*
X119705771Y-68999138D01*
X119289647Y-69414536D01*
X118876463Y-69000630D01*
X118321675Y-68770262D01*
X117720960Y-68769738D01*
X117165771Y-68999138D01*
X116740630Y-69423537D01*
X116510262Y-69978325D01*
X116509738Y-70579040D01*
X116739138Y-71134229D01*
X116942411Y-71337857D01*
X116897235Y-71346843D01*
X116687191Y-71487191D01*
X116546843Y-71697235D01*
X116497560Y-71945000D01*
X115159655Y-71945000D01*
X115160348Y-71151940D01*
X114854988Y-70412914D01*
X114290060Y-69846999D01*
X113551568Y-69540350D01*
X112751940Y-69539652D01*
X112012914Y-69845012D01*
X111446999Y-70409940D01*
X111140350Y-71148432D01*
X111139652Y-71948060D01*
X109675232Y-71948060D01*
X109675438Y-71487034D01*
X109935022Y-70184920D01*
X110666012Y-69091835D01*
X111759636Y-68361652D01*
X113061939Y-68103031D01*
X191191603Y-68125970D01*
M02*
