M48
;DRILL file {KiCad no-vcs-found-7403~56~ubuntu14.04.1} date Wed Dec 21 10:01:44 2016
;FORMAT={-:-/ absolute / metric / decimal}
FMAT,2
METRIC,TZ
T1C0.400
T2C0.500
T3C0.550
T4C0.800
T5C1.016
T6C2.750
%
G90
G05
M71
T1
X111.47Y-91.19
X112.522Y-94.234
X113.23Y-91.05
X114.14Y-104.12
X114.533Y-92.993
X115.52Y-101.19
X115.52Y-98.68
X115.52Y-97.54
X115.52Y-99.93
X115.53Y-104.12
X116.91Y-104.12
X116.94Y-93.63
X117.62Y-88.55
X119.725Y-99.125
X119.77Y-106.43
X120.6Y-99.925
X120.61Y-95.26
X122.05Y-104.975
X122.66Y-93.45
X123.4Y-104.975
X125.03Y-94.86
X125.21Y-85.27
X125.9Y-82.1
X127.13Y-77.3
X127.14Y-79.78
X131.45Y-82.1
X132.65Y-117.35
X134.225Y-74.975
X134.225Y-76.1
X134.31Y-101.18
X134.925Y-94.7
X135.725Y-95.45
X136.88Y-115.03
X138.375Y-82.1
X138.95Y-108.6
X139.33Y-96.47
X139.45Y-87.45
X139.525Y-106.525
X139.9Y-91.05
X139.954Y-112.014
X140.21Y-98.23
X140.325Y-108.6
X140.6Y-103.875
X141.15Y-97.4
X141.2Y-106.65
X141.225Y-107.7
X141.425Y-74.6
X141.55Y-78.5
X141.9Y-102.375
X142.2Y-85.29
X142.24Y-87.45
X143.125Y-102.4
X143.67Y-82.05
X144.48Y-87.66
X144.65Y-102.4
X144.698Y-82.025
X145.63Y-97.29
X146.Y-76.625
X146.5Y-82.1
X146.85Y-93.75
X147.225Y-77.4
X147.325Y-103.625
X147.35Y-81.15
X147.6Y-98.075
X147.65Y-91.5
X148.325Y-82.075
X149.75Y-78.15
X149.8Y-93.375
X149.825Y-85.125
X149.825Y-87.5
X149.825Y-90.625
X149.85Y-101.25
X149.85Y-103.625
X151.03Y-90.62
X151.7Y-102.4
X152.05Y-99.075
X152.8Y-103.6
X153.Y-117.35
X154.2Y-102.8
X154.7Y-91.2
X155.05Y-79.45
X155.525Y-92.75
X156.925Y-95.475
X157.5Y-102.8
X157.7Y-86.65
X157.8Y-92.55
X157.825Y-91.4
X157.85Y-90.2
X157.85Y-94.675
X158.15Y-82.15
X159.89Y-84.3
X159.9Y-85.225
X161.29Y-78.486
X161.798Y-76.2
X162.814Y-76.2
X162.975Y-103.35
X163.72Y-96.44
X165.675Y-106.575
X165.862Y-78.486
X165.89Y-98.33
X166.225Y-105.6
X166.45Y-83.15
X167.3Y-107.23
X167.42Y-87.15
X167.48Y-80.06
X169.43Y-82.41
X169.59Y-80.88
X170.41Y-78.2
X173.05Y-90.675
X173.5Y-82.01
X175.73Y-93.04
X175.83Y-82.94
X176.64Y-97.49
X177.46Y-100.74
X178.52Y-94.65
X178.62Y-88.95
X178.64Y-83.9
X179.02Y-81.44
X181.2Y-108.2
X181.22Y-92.16
X181.85Y-86.6
X181.86Y-85.18
X186.436Y-82.042
X186.436Y-87.63
T4
X127.7Y-97.9
X127.7Y-100.3
X129.8Y-97.95
X129.8Y-100.3
X131.9Y-97.95
X131.9Y-100.33
X134.Y-97.95
X182.64Y-78.46
X184.88Y-78.46
X187.39Y-78.45
T5
X118.02Y-70.28
X118.02Y-72.82
X120.56Y-70.28
X120.56Y-72.82
X123.1Y-70.28
X123.1Y-72.82
X125.64Y-70.28
X125.64Y-72.82
X128.18Y-70.28
X128.18Y-72.82
X130.72Y-70.28
X130.72Y-72.82
X133.26Y-70.28
X133.26Y-72.82
X135.8Y-70.28
X135.8Y-72.82
X138.34Y-70.28
X138.34Y-72.82
X140.88Y-70.28
X140.88Y-72.82
X143.42Y-70.28
X143.42Y-72.82
X145.96Y-70.28
X145.96Y-72.82
X148.5Y-70.28
X148.5Y-72.82
X151.04Y-70.28
X151.04Y-72.82
X153.58Y-70.28
X153.58Y-72.82
X156.12Y-70.28
X156.12Y-72.82
X158.66Y-70.28
X158.66Y-72.82
X161.2Y-70.28
X161.2Y-72.82
X163.74Y-70.28
X163.74Y-72.82
X166.28Y-70.28
X166.28Y-72.82
X167.132Y-92.11
X167.132Y-94.65
X169.672Y-92.11
X169.672Y-94.65
X172.212Y-92.11
X172.212Y-94.65
T6
X113.15Y-71.55
X113.15Y-120.55
X171.15Y-71.55
X171.15Y-120.55
T2
X191.962Y-82.607G85X191.312Y-82.607
G05
X191.962Y-89.607G85X191.312Y-89.607
G05
X191.962Y-102.419G85X191.312Y-102.419
G05
X191.962Y-109.419G85X191.312Y-109.419
G05
T3
X188.937Y-83.757G85X188.937Y-83.457
G05
X188.937Y-88.757G85X188.937Y-88.457
G05
X188.937Y-103.569G85X188.937Y-103.269
G05
X188.937Y-108.569G85X188.937Y-108.269
G05
T0
M30
