M48
;DRILL file {KiCad no-vcs-found-7592~57~ubuntu16.04.1} date Tue Feb  7 06:20:50 2017
;FORMAT={-:-/ absolute / inch / decimal}
FMAT,2
INCH,TZ
T1C0.016
T2C0.020
T3C0.022
T4C0.031
T5C0.040
%
G90
G05
M72
T1
X4.3886Y-3.5902
X4.43Y-3.71
X4.4579Y-3.5846
X4.4937Y-4.0992
X4.5092Y-3.6611
X4.548Y-3.9839
X4.548Y-3.885
X4.548Y-3.8402
X4.548Y-3.9343
X4.5484Y-4.0992
X4.6028Y-4.0992
X4.6039Y-3.6862
X4.6307Y-3.4862
X4.7136Y-3.9026
X4.7154Y-4.1902
X4.748Y-3.9341
X4.7484Y-3.7504
X4.8051Y-4.1329
X4.8291Y-3.6791
X4.8583Y-4.1329
X4.9224Y-3.7346
X4.9295Y-3.3571
X4.9567Y-3.2323
X5.0051Y-3.0433
X5.0055Y-3.1409
X5.1752Y-3.2323
X5.2224Y-4.6201
X5.2844Y-2.9518
X5.2844Y-2.9961
X5.2878Y-3.9835
X5.312Y-3.7283
X5.3435Y-3.7579
X5.389Y-4.5287
X5.4478Y-3.2323
X5.4705Y-4.2756
X5.4854Y-3.798
X5.4902Y-3.4429
X5.4931Y-4.1939
X5.5079Y-3.5846
X5.51Y-4.41
X5.5201Y-3.8673
X5.5246Y-4.2756
X5.5354Y-4.0896
X5.5571Y-3.8346
X5.5591Y-4.1988
X5.56Y-4.2402
X5.5679Y-2.937
X5.5728Y-3.0906
X5.5866Y-4.0305
X5.5984Y-3.3579
X5.6Y-3.4429
X5.6348Y-4.0315
X5.6563Y-3.2303
X5.6882Y-3.4512
X5.6949Y-4.0315
X5.6968Y-3.2293
X5.7335Y-3.8303
X5.748Y-3.0167
X5.7677Y-3.2323
X5.7815Y-3.6909
X5.7963Y-3.0472
X5.8002Y-4.0797
X5.8012Y-3.1949
X5.811Y-3.8612
X5.813Y-3.6024
X5.8396Y-3.2313
X5.8957Y-3.0768
X5.8976Y-3.6762
X5.8986Y-3.3514
X5.8986Y-3.4449
X5.8986Y-3.5679
X5.8996Y-3.9862
X5.8996Y-4.0797
X5.9461Y-3.5677
X5.9724Y-4.0315
X5.9843Y-3.8986
X6.0157Y-4.0787
X6.0236Y-4.6201
X6.0709Y-4.0472
X6.0906Y-3.5906
X6.1043Y-3.128
X6.123Y-3.6516
X6.1781Y-3.7589
X6.2008Y-4.0472
X6.2087Y-3.4114
X6.2126Y-3.6437
X6.2136Y-3.5984
X6.2146Y-3.5512
X6.2146Y-3.7274
X6.2264Y-3.2343
X6.2949Y-3.3189
X6.2953Y-3.3553
X6.35Y-3.09
X6.37Y-3.
X6.41Y-3.
X6.4163Y-4.0689
X6.4457Y-3.7969
X6.5226Y-4.1959
X6.53Y-3.09
X6.5311Y-3.8713
X6.5443Y-4.1575
X6.5531Y-3.2736
X6.5866Y-4.2217
X6.5913Y-3.4311
X6.5937Y-3.152
X6.6705Y-3.2445
X6.6768Y-3.1843
X6.7091Y-3.0787
X6.813Y-3.5699
X6.8307Y-3.2287
X6.9185Y-3.663
X6.9224Y-3.2654
X6.9543Y-3.8382
X6.9866Y-3.9661
X7.0283Y-3.7264
X7.0323Y-3.502
X7.0331Y-3.3031
X7.048Y-3.2063
X7.1339Y-4.2598
X7.1346Y-3.6283
X7.1594Y-3.4094
X7.1598Y-3.3535
X7.34Y-3.23
X7.34Y-3.45
T4
X5.0276Y-3.8543
X5.0276Y-3.9488
X5.1102Y-3.8563
X5.1102Y-3.9488
X5.1929Y-3.8563
X5.1929Y-3.95
X5.2756Y-3.8563
X7.1906Y-3.089
X7.2787Y-3.089
X7.3776Y-3.0886
T5
X4.6465Y-2.7669
X4.6465Y-2.8669
X4.7465Y-2.7669
X4.7465Y-2.8669
X4.8465Y-2.7669
X4.8465Y-2.8669
X4.9465Y-2.7669
X4.9465Y-2.8669
X5.0465Y-2.7669
X5.0465Y-2.8669
X5.1465Y-2.7669
X5.1465Y-2.8669
X5.2465Y-2.7669
X5.2465Y-2.8669
X5.3465Y-2.7669
X5.3465Y-2.8669
X5.4465Y-2.7669
X5.4465Y-2.8669
X5.5465Y-2.7669
X5.5465Y-2.8669
X5.6465Y-2.7669
X5.6465Y-2.8669
X5.7465Y-2.7669
X5.7465Y-2.8669
X5.8465Y-2.7669
X5.8465Y-2.8669
X5.9465Y-2.7669
X5.9465Y-2.8669
X6.0465Y-2.7669
X6.0465Y-2.8669
X6.1465Y-2.7669
X6.1465Y-2.8669
X6.2465Y-2.7669
X6.2465Y-2.8669
X6.3465Y-2.7669
X6.3465Y-2.8669
X6.4465Y-2.7669
X6.4465Y-2.8669
X6.5465Y-2.7669
X6.5465Y-2.8669
X6.58Y-3.6264
X6.58Y-3.7264
X6.68Y-3.6264
X6.68Y-3.7264
X6.78Y-3.6264
X6.78Y-3.7264
T2
X7.5576Y-3.2522G85X7.532Y-3.2522
G05
X7.5576Y-3.5278G85X7.532Y-3.5278
G05
X7.5576Y-4.0322G85X7.532Y-4.0322
G05
X7.5576Y-4.3078G85X7.532Y-4.3078
G05
T3
X7.4385Y-3.2975G85X7.4385Y-3.2857
G05
X7.4385Y-3.4944G85X7.4385Y-3.4826
G05
X7.4385Y-4.0775G85X7.4385Y-4.0657
G05
X7.4385Y-4.2744G85X7.4385Y-4.2626
G05
T0
M30
