G04 #@! TF.GenerationSoftware,KiCad,Pcbnew,no-vcs-found-7592~57~ubuntu16.04.1*
G04 #@! TF.CreationDate,2017-02-07T06:20:48+01:00*
G04 #@! TF.ProjectId,DuePi,44756550692E6B696361645F70636200,rev?*
G04 #@! TF.FileFunction,Legend,Bot*
G04 #@! TF.FilePolarity,Positive*
%FSLAX46Y46*%
G04 Gerber Fmt 4.6, Leading zero omitted, Abs format (unit mm)*
G04 Created by KiCad (PCBNEW no-vcs-found-7592~57~ubuntu16.04.1) date Tue Feb  7 06:20:48 2017*
%MOMM*%
%LPD*%
G01*
G04 APERTURE LIST*
%ADD10C,0.100000*%
%ADD11C,1.750000*%
%ADD12R,1.750000X1.750000*%
%ADD13C,2.750000*%
%ADD14C,1.500000*%
%ADD15O,1.727200X1.727200*%
%ADD16R,1.727200X1.727200*%
%ADD17R,1.500000X1.500000*%
%ADD18O,0.950000X1.250000*%
%ADD19O,1.550000X1.000000*%
G04 APERTURE END LIST*
D10*
%LPC*%
D11*
X151040000Y-72820000D03*
X151040000Y-70280000D03*
X153580000Y-72820000D03*
X153580000Y-70280000D03*
X145960000Y-70280000D03*
X145960000Y-72820000D03*
D12*
X118020000Y-72820000D03*
D11*
X118020000Y-70280000D03*
X120560000Y-72820000D03*
X120560000Y-70280000D03*
X123100000Y-72820000D03*
X123100000Y-70280000D03*
X125640000Y-72820000D03*
X125640000Y-70280000D03*
X128180000Y-72820000D03*
X128180000Y-70280000D03*
X130720000Y-72820000D03*
X130720000Y-70280000D03*
X133260000Y-72820000D03*
X133260000Y-70280000D03*
X135800000Y-72820000D03*
X135800000Y-70280000D03*
X138340000Y-72820000D03*
X138340000Y-70280000D03*
X140880000Y-72820000D03*
X140880000Y-70280000D03*
X143420000Y-72820000D03*
X143420000Y-70280000D03*
X148500000Y-72820000D03*
X148500000Y-70280000D03*
X156120000Y-72820000D03*
X156120000Y-70280000D03*
X158660000Y-72820000D03*
X158660000Y-70280000D03*
X161200000Y-72820000D03*
X161200000Y-70280000D03*
X163740000Y-72820000D03*
X163740000Y-70280000D03*
X166280000Y-72820000D03*
X166280000Y-70280000D03*
D13*
X113150000Y-71550000D03*
X171150000Y-71550000D03*
X113150000Y-120550000D03*
X171150000Y-120550000D03*
D14*
X127700000Y-97900000D03*
X129800000Y-97950000D03*
X131900000Y-97950000D03*
X134000000Y-97950000D03*
X129800000Y-100300000D03*
X127700000Y-100300000D03*
D15*
X172212000Y-92110000D03*
X172212000Y-94650000D03*
X169672000Y-92110000D03*
X169672000Y-94650000D03*
X167132000Y-92110000D03*
D16*
X167132000Y-94650000D03*
D14*
X131900000Y-100330000D03*
D17*
X184880000Y-78460000D03*
X182640000Y-78460000D03*
X187390000Y-78450000D03*
D18*
X188937460Y-88606900D03*
X188937460Y-83606900D03*
D19*
X191637460Y-89606900D03*
X191637460Y-82606900D03*
X191637460Y-102418900D03*
X191637460Y-109418900D03*
D18*
X188937460Y-103418900D03*
X188937460Y-108418900D03*
M02*
